<svg viewBox="0 0 17 17" fill="none" xmlns="http://www.w3.org/2000/svg">
<g id="archive" clip-path="url(#clip0_1739_49569)">
<path id="Icon" d="M2.625 5.87277C2.51737 5.86999 2.43921 5.86376 2.36894 5.84978C1.84829 5.74622 1.44128 5.33921 1.33772 4.81856C1.3125 4.69177 1.3125 4.53931 1.3125 4.23438C1.3125 3.92945 1.3125 3.77698 1.33772 3.65019C1.44128 3.12954 1.84829 2.72253 2.36894 2.61897C2.49573 2.59375 2.6482 2.59375 2.95313 2.59375H12.7969C13.1018 2.59375 13.2543 2.59375 13.3811 2.61897C13.9017 2.72253 14.3087 3.12954 14.4123 3.65019C14.4375 3.77698 14.4375 3.92945 14.4375 4.23438C14.4375 4.53931 14.4375 4.69177 14.4123 4.81856C14.3087 5.33921 13.9017 5.74622 13.3811 5.84978C13.3108 5.86376 13.2326 5.86999 13.125 5.87277M6.5625 9.15625H9.1875M2.625 5.875H13.125V11.2563C13.125 12.3589 13.125 12.9102 12.9104 13.3313C12.7217 13.7017 12.4205 14.0029 12.05 14.1917C11.6289 14.4063 11.0776 14.4063 9.975 14.4063H5.775C4.6724 14.4063 4.1211 14.4063 3.69996 14.1917C3.32951 14.0029 3.02833 13.7017 2.83958 13.3313C2.625 12.9102 2.625 12.3589 2.625 11.2563V5.875Z" stroke="currentColor" stroke-width="1.5" stroke-linecap="round" stroke-linejoin="round"/>
</g>

</svg>
