<svg xmlns="http://www.w3.org/2000/svg" viewBox="0 0 24 22" fill="none">
  <path d="M-1.35659e-06 14.9998C-1.37205e-06 15.3534 0.140473 15.6925 0.390522 15.9426C0.64057 16.1926 0.97971 16.3331 1.33333 16.3331L19.4533 16.3331L16.3867 19.3864C16.1356 19.6375 15.9945 19.978 15.9945 20.3331C15.9945 20.6882 16.1356 21.0287 16.3867 21.2798C16.6377 21.5308 16.9783 21.6719 17.3333 21.6719C17.6884 21.6719 18.0289 21.5308 18.28 21.2798L23.6133 15.9464C23.7983 15.7589 23.9237 15.5208 23.9735 15.2622C24.0233 15.0035 23.9954 14.7359 23.8933 14.4931C23.7933 14.2496 23.6234 14.0412 23.4051 13.8941C23.1869 13.7469 22.9299 13.6677 22.6667 13.6664L1.33333 13.6664C0.97971 13.6664 0.64057 13.8069 0.390522 14.057C0.140473 14.307 -1.34114e-06 14.6461 -1.35659e-06 14.9998ZM0.386667 6.05309C0.263092 6.17768 0.165323 6.32543 0.0989701 6.48788C0.0326173 6.65033 -0.00101552 6.82428 -1.0069e-06 6.99976C-0.00450783 7.17466 0.0320237 7.34819 0.106666 7.50643C0.206692 7.74992 0.376556 7.95835 0.59485 8.10546C0.813144 8.25257 1.0701 8.33178 1.33333 8.33309L22.6667 8.33309C23.0203 8.33309 23.3594 8.19262 23.6095 7.94257C23.8595 7.69252 24 7.35338 24 6.99976C24 6.64614 23.8595 6.307 23.6095 6.05695C23.3594 5.8069 23.0203 5.66643 22.6667 5.66643L4.54667 5.66643L7.61333 2.61309C7.73765 2.48877 7.83627 2.34119 7.90355 2.17876C7.97083 2.01633 8.00545 1.84224 8.00545 1.66643C8.00545 1.49061 7.97083 1.31652 7.90355 1.15409C7.83627 0.991663 7.73765 0.844076 7.61333 0.719758C7.48901 0.59544 7.34143 0.496826 7.179 0.429546C7.01657 0.362265 6.84248 0.327636 6.66667 0.327636C6.3116 0.327636 5.97107 0.468687 5.72 0.719758L0.386667 6.05309Z" fill="currentColor"/>
</svg>