<svg xmlns="http://www.w3.org/2000/svg" width="33" height="32" viewBox="0 0 33 32" fill="none">
  <g clip-path="url(#clip0_6239_13290)">
    <path d="M29.8162 20.2857H26.2847V16.8571C26.2847 16.2509 26.0439 15.6696 25.6153 15.2409C25.1866 14.8122 24.6052 14.5714 23.999 14.5714H17.1419V11.1429H20.6733C21.2513 11.1399 21.8048 10.9089 22.2135 10.5002C22.6222 10.0915 22.8532 9.538 22.8562 8.96V4.18286C22.8532 3.60485 22.6222 3.05138 22.2135 2.64266C21.8048 2.23395 21.2513 2.003 20.6733 2H11.3247C10.7467 2.003 10.1933 2.23395 9.78454 2.64266C9.37583 3.05138 9.14488 3.60485 9.14188 4.18286V8.96C9.14488 9.538 9.37583 10.0915 9.78454 10.5002C10.1933 10.9089 10.7467 11.1399 11.3247 11.1429H14.8562V14.5714H7.99902C7.39281 14.5714 6.81143 14.8122 6.38278 15.2409C5.95412 15.6696 5.71331 16.2509 5.71331 16.8571V20.2857H2.18188C1.60388 20.2887 1.0504 20.5197 0.641685 20.9284C0.232969 21.3371 0.00202612 21.8906 -0.000976562 22.4686V27.2457C0.00202612 27.8237 0.232969 28.3772 0.641685 28.7859C1.0504 29.1946 1.60388 29.4256 2.18188 29.4286H11.5305C12.1085 29.4256 12.6619 29.1946 13.0706 28.7859C13.4794 28.3772 13.7103 27.8237 13.7133 27.2457V22.4686C13.7103 21.8906 13.4794 21.3371 13.0706 20.9284C12.6619 20.5197 12.1085 20.2887 11.5305 20.2857H7.99902V16.8571H23.999V20.2857H20.4676C19.8896 20.2887 19.3361 20.5197 18.9274 20.9284C18.5187 21.3371 18.2877 21.8906 18.2847 22.4686V27.2457C18.2877 27.8237 18.5187 28.3772 18.9274 28.7859C19.3361 29.1946 19.8896 29.4256 20.4676 29.4286H29.8162C30.3942 29.4256 30.9476 29.1946 31.3564 28.7859C31.7651 28.3772 31.996 27.8237 31.999 27.2457V22.4686C31.996 21.8906 31.7651 21.3371 31.3564 20.9284C30.9476 20.5197 30.3942 20.2887 29.8162 20.2857ZM11.4276 4.28571H20.5705V8.85714H11.4276V4.28571ZM11.4276 27.1429H2.28474V22.5714H11.4276V27.1429ZM29.7133 27.1429H20.5705V22.5714H29.7133V27.1429Z" fill="currentColor"/>
  </g>
  <defs>
    <clipPath id="clip0_6239_13290">
      <rect width="32" height="32" fill="white" transform="translate(0.333008)"/>
    </clipPath>
  </defs>
</svg>