<svg xmlns="http://www.w3.org/2000/svg" width="16" height="17" viewBox="0 0 16 17" fill="none">
  <path d="M6 5.16667H3.06667C2.6933 5.16667 2.50661 5.16667 2.36401 5.23933C2.23856 5.30324 2.13658 5.40523 2.07266 5.53067C2 5.67328 2 5.85997 2 6.23333V13.4333C2 13.8067 2 13.9934 2.07266 14.136C2.13658 14.2614 2.23856 14.3634 2.36401 14.4273C2.50661 14.5 2.6933 14.5 3.06667 14.5H6M6 14.5H10M6 14.5L6 3.56667C6 3.1933 6 3.00661 6.07266 2.86401C6.13658 2.73857 6.23857 2.63658 6.36401 2.57266C6.50661 2.5 6.6933 2.5 7.06667 2.5L8.93333 2.5C9.3067 2.5 9.49339 2.5 9.63599 2.57266C9.76144 2.63658 9.86342 2.73856 9.92734 2.86401C10 3.00661 10 3.1933 10 3.56667V14.5M10 7.83333H12.9333C13.3067 7.83333 13.4934 7.83333 13.636 7.906C13.7614 7.96991 13.8634 8.0719 13.9273 8.19734C14 8.33995 14 8.52663 14 8.9V13.4333C14 13.8067 14 13.9934 13.9273 14.136C13.8634 14.2614 13.7614 14.3634 13.636 14.4273C13.4934 14.5 13.3067 14.5 12.9333 14.5H10" stroke="currentColor" stroke-width="1.5" stroke-linecap="round" stroke-linejoin="round"/>
</svg>