<svg viewBox="0 0 16 16" fill="none" xmlns="http://www.w3.org/2000/svg">
<g id="bell">
<path id="Vector" d="M11.7751 5.09521C11.7751 4.10065 11.3801 3.14683 10.6768 2.44356C9.97354 1.7403 9.01971 1.34521 8.02515 1.34521C7.03059 1.34521 6.07676 1.7403 5.3735 2.44356C4.67023 3.14683 4.27515 4.10065 4.27515 5.09521C4.27515 9.47021 2.40015 10.7202 2.40015 10.7202H13.6501C13.6501 10.7202 11.7751 9.47021 11.7751 5.09521Z" stroke="currentColor" stroke-width="1.2" stroke-linecap="round" stroke-linejoin="round"/>
<path id="Vector_2" d="M9.10635 13.2202C8.99647 13.4096 8.83875 13.5669 8.64899 13.6762C8.45923 13.7855 8.24408 13.843 8.0251 13.843C7.80611 13.843 7.59097 13.7855 7.40121 13.6762C7.21145 13.5669 7.05373 13.4096 6.94385 13.2202" stroke="currentColor" stroke-width="1.2" stroke-linecap="round" stroke-linejoin="round"/>
</g>
</svg>
