<svg xmlns="http://www.w3.org/2000/svg" width="20" height="20" viewBox="0 0 20 20" fill="none">
  <path d="M11.9924 15.0126C12.3498 16.3462 11.5583 17.7171 10.2247 18.0744C8.891 18.4318 7.52015 17.6403 7.1628 16.3067M9.07621 4.78428C9.32971 4.3282 9.41322 3.77695 9.2675 3.23312C8.9697 2.12173 7.82734 1.46219 6.71595 1.75998C5.60456 2.05778 4.94501 3.20015 5.24281 4.31153C5.38853 4.85536 5.73647 5.29101 6.18406 5.55923M13.5299 7.87132C13.2324 6.76121 12.4383 5.8329 11.3222 5.29063C10.2062 4.74835 8.85958 4.63652 7.57868 4.97973C6.29778 5.32295 5.18751 6.0931 4.49211 7.12075C3.79671 8.14841 3.57315 9.3494 3.8706 10.4595C4.36274 12.2962 4.26718 13.7615 3.95639 14.875C3.60216 16.144 3.42505 16.7786 3.4729 16.906C3.52764 17.0517 3.56724 17.0917 3.71244 17.148C3.83935 17.1972 4.37249 17.0543 5.43877 16.7686L15.3263 14.1192C16.3926 13.8335 16.9258 13.6907 17.0111 13.5846C17.1087 13.4633 17.123 13.4089 17.0975 13.2553C17.0752 13.121 16.6046 12.66 15.6633 11.7381C14.8374 10.9292 14.022 9.70803 13.5299 7.87132Z" stroke="currentColor" stroke-width="2" stroke-linecap="round" stroke-linejoin="round"/>
</svg>