<svg width="16" height="16" viewBox="0 0 16 16" fill="none" xmlns="http://www.w3.org/2000/svg">
<g id="calendar">
<path id="Icon" d="M14 6.66634H2M10.6667 1.33301V3.99967M5.33333 1.33301V3.99967M5.2 14.6663H10.8C11.9201 14.6663 12.4802 14.6663 12.908 14.4484C13.2843 14.2566 13.5903 13.9506 13.782 13.5743C14 13.1465 14 12.5864 14 11.4663V5.86634C14 4.74624 14 4.18618 13.782 3.75836C13.5903 3.38204 13.2843 3.07607 12.908 2.88433C12.4802 2.66634 11.9201 2.66634 10.8 2.66634H5.2C4.0799 2.66634 3.51984 2.66634 3.09202 2.88433C2.71569 3.07607 2.40973 3.38204 2.21799 3.75836C2 4.18618 2 4.74624 2 5.86634V11.4663C2 12.5864 2 13.1465 2.21799 13.5743C2.40973 13.9506 2.71569 14.2566 3.09202 14.4484C3.51984 14.6663 4.0799 14.6663 5.2 14.6663Z" stroke="currentColor" stroke-width="1.66667" stroke-linecap="round" stroke-linejoin="round"/>
</g>
</svg>
