<svg xmlns="http://www.w3.org/2000/svg" viewBox="0 0 16 16" fill="none">
  <path d="M10.9095 4.1295C10.7942 4.10908 10.6899 4.04854 10.6149 3.95859C10.54 3.86864 10.4993 3.75508 10.5 3.638V1.5C10.5 1.36739 10.4473 1.24021 10.3536 1.14645C10.2598 1.05268 10.1326 1 10 1H6C5.86739 1 5.74021 1.05268 5.64645 1.14645C5.55268 1.24021 5.5 1.36739 5.5 1.5V3.638C5.5 3.8815 5.3275 4.088 5.09 4.129C2.376 4.6015 1 5.399 1 6.5C1 8.29 2.2865 10.3805 4.1555 11.6975C4.128 12.5585 3.9275 13.432 3.543 14.297C3.50918 14.3731 3.49491 14.4565 3.5015 14.5395C3.50809 14.6226 3.53532 14.7027 3.58073 14.7725C3.62613 14.8424 3.68827 14.8998 3.76149 14.9395C3.83471 14.9792 3.9167 15 4 15H12C12.361 15 12.6035 14.6275 12.457 14.297C12.0725 13.432 11.872 12.5585 11.8445 11.6975C13.7135 10.3805 15 8.29 15 6.5C15 5.399 13.624 4.6015 10.9095 4.1295ZM6.5 3.638V2H9.5V3.638C9.5 4.3635 9.93 4.963 10.9635 5.1565C10.7475 6.4795 9.5005 7.5 8 7.5C6.5005 7.5 5.2525 6.479 5.0365 5.1565C6.074 4.962 6.5 4.3595 6.5 3.638ZM8.5 9C8.5 9.2755 8.2755 9.5 8 9.5C7.7245 9.5 7.5 9.2755 7.5 9C7.5 8.7245 7.7245 8.5 8 8.5C8.2755 8.5 8.5 8.7245 8.5 9ZM11.2655 14H4.7345C4.933 13.4255 5.059 12.8475 5.1205 12.271C6.012 12.7225 6.989 13 8 13C9.011 13 9.988 12.7225 10.8795 12.271C10.941 12.8475 11.067 13.4255 11.2655 14ZM8 12C4.688 12 2 8.672 2 6.5C2 6.185 2.654 5.738 4.06 5.372C4.3045 6.7305 5.3305 7.8425 6.688 8.288C6.56635 8.5057 6.50168 8.75062 6.5 9C6.5 9.827 7.173 10.5 8 10.5C8.827 10.5 9.5 9.827 9.5 9C9.49832 8.75062 9.43365 8.5057 9.312 8.288C10.67 7.843 11.696 6.731 11.94 5.372C13.346 5.738 14 6.185 14 6.5C14 8.672 11.312 12 8 12Z" fill="currentColor"/>
</svg>