<svg xmlns="http://www.w3.org/2000/svg"  viewBox="0 0 16 16" fill="none">
  <g clip-path="url(#clip0_55_2657)">
    <path d="M8 0C3.58166 0 0 3.58166 0 8C0 12.4183 3.58166 16 8 16C12.4183 16 16 12.4183 16 8C15.995 3.58375 12.4163 0.005 8 0ZM8 15C4.13406 15 1 11.8659 1 8C1 4.13406 4.13406 1 8 1C11.8659 1 15 4.13406 15 8C14.9957 11.8643 11.8643 14.9957 8 15Z" fill="currentColor"/>
    <path d="M11.598 6.00999L9.33802 5.55771L8.44727 3.77646C8.40574 3.69339 8.34191 3.62352 8.26291 3.57469C8.18391 3.52586 8.09287 3.5 8 3.5C7.90713 3.5 7.8161 3.52586 7.7371 3.57469C7.6581 3.62352 7.59426 3.69339 7.55274 3.77646L6.66199 5.55771L4.40199 6.00996C4.31914 6.02653 4.24184 6.06382 4.17731 6.11835C4.11278 6.17288 4.06311 6.24287 4.03295 6.32179C4.00279 6.40071 3.99312 6.48599 4.00483 6.56966C4.01655 6.65333 4.04928 6.73267 4.09996 6.80027L5.46567 8.62143L5.00974 10.9022C4.99219 10.9904 4.99876 11.0817 5.02874 11.1664C5.05872 11.2512 5.11101 11.3263 5.1801 11.3839C5.24919 11.4415 5.33253 11.4793 5.42132 11.4935C5.51012 11.5077 5.6011 11.4976 5.68467 11.4644L7.99999 10.5386L10.3142 11.4637C10.3978 11.4969 10.4888 11.507 10.5776 11.4928C10.6664 11.4786 10.7497 11.4408 10.8188 11.3833C10.8879 11.3257 10.9402 11.2506 10.9702 11.1658C11.0002 11.081 11.0068 10.9897 10.9892 10.9015L10.5332 8.62068L11.9 6.80027C11.9507 6.73267 11.9834 6.65334 11.9951 6.56967C12.0069 6.486 11.9972 6.40072 11.967 6.3218C11.9369 6.24288 11.8872 6.17289 11.8227 6.11836C11.7582 6.06383 11.6809 6.02653 11.598 6.00996V6.00999ZM9.59996 8.20015C9.55776 8.25642 9.52792 8.32097 9.51238 8.38957C9.49684 8.45817 9.49595 8.52927 9.50977 8.59824L9.82874 10.1932L8.18577 9.53599C8.06651 9.48827 7.93346 9.48827 7.81421 9.53599L6.17124 10.1932L6.49024 8.59824C6.50405 8.52927 6.50316 8.45816 6.48761 8.38957C6.47206 8.32097 6.44222 8.25642 6.40002 8.20015L5.37499 6.83493L7.09702 6.49043C7.17182 6.47565 7.24225 6.44396 7.30291 6.39777C7.36358 6.35158 7.41287 6.29213 7.44702 6.22396L7.99999 5.11824L8.55274 6.22518C8.58688 6.29335 8.63617 6.35281 8.69682 6.399C8.75748 6.44519 8.82791 6.47689 8.90271 6.49168L10.625 6.8349L9.59996 8.20015Z" fill="currentColor"/>
  </g>
</svg>