<svg xmlns="http://www.w3.org/2000/svg"  viewBox="0 0 16 16" fill="none">
  <g clip-path="url(#clip0_131_3532)">
    <path d="M4.00005 0.5C2.07055 0.5 0.500049 2.2945 0.500049 4.5C0.482857 5.22532 0.659053 5.94214 1.01054 6.57683C1.36202 7.21153 1.87613 7.74122 2.50005 8.1115V14C2.50005 14.3978 2.65808 14.7794 2.93939 15.0607C3.22069 15.342 3.60222 15.5 4.00005 15.5C4.39787 15.5 4.77941 15.342 5.06071 15.0607C5.34201 14.7794 5.50005 14.3978 5.50005 14V8.1115C6.12397 7.74122 6.63807 7.21153 6.98956 6.57683C7.34105 5.94214 7.51724 5.22532 7.50005 4.5C7.50005 2.2945 5.92955 0.5 4.00005 0.5ZM4.80905 7.3345C4.71761 7.37229 4.63944 7.43637 4.58444 7.51861C4.52943 7.60085 4.50007 7.69756 4.50005 7.7965V14C4.50005 14.1326 4.44737 14.2598 4.3536 14.3536C4.25983 14.4473 4.13266 14.5 4.00005 14.5C3.86744 14.5 3.74026 14.4473 3.6465 14.3536C3.55273 14.2598 3.50005 14.1326 3.50005 14V7.7965C3.50003 7.69756 3.47066 7.60085 3.41566 7.51861C3.36065 7.43637 3.28249 7.37229 3.19105 7.3345C2.66398 7.07778 2.22326 6.67287 1.9229 6.16939C1.62254 5.66592 1.47558 5.08575 1.50005 4.5C1.50005 2.8455 2.62155 1.5 4.00005 1.5C5.37855 1.5 6.50005 2.8455 6.50005 4.5C6.52451 5.08575 6.37756 5.66592 6.0772 6.16939C5.77684 6.67287 5.33611 7.07778 4.80905 7.3345ZM15 0.5C14.8674 0.5 14.7403 0.552678 14.6465 0.646447C14.5527 0.740215 14.5 0.867392 14.5 1V6C14.5 6.39782 14.342 6.77936 14.0607 7.06066C13.7794 7.34196 13.3979 7.5 13 7.5C12.8674 7.5 12.7403 7.55268 12.6465 7.64645C12.5527 7.74021 12.5 7.86739 12.5 8V14C12.5 14.1326 12.4474 14.2598 12.3536 14.3536C12.2598 14.4473 12.1327 14.5 12 14.5C11.8674 14.5 11.7403 14.4473 11.6465 14.3536C11.5527 14.2598 11.5 14.1326 11.5 14V8C11.5 7.86739 11.4474 7.74021 11.3536 7.64645C11.2598 7.55268 11.1327 7.5 11 7.5C10.6022 7.5 10.2207 7.34196 9.93939 7.06066C9.65808 6.77936 9.50005 6.39782 9.50005 6V1C9.50005 0.867392 9.44737 0.740215 9.3536 0.646447C9.25984 0.552678 9.13266 0.5 9.00005 0.5C8.86744 0.5 8.74026 0.552678 8.6465 0.646447C8.55273 0.740215 8.50005 0.867392 8.50005 1V6C8.50068 6.57613 8.69997 7.13441 9.0643 7.58072C9.42863 8.02702 9.93571 8.33404 10.5 8.45V14C10.5 14.3978 10.6581 14.7794 10.9394 15.0607C11.2207 15.342 11.6022 15.5 12 15.5C12.3979 15.5 12.7794 15.342 13.0607 15.0607C13.342 14.7794 13.5 14.3978 13.5 14V8.45C14.0644 8.33404 14.5715 8.02702 14.9358 7.58072C15.3001 7.13441 15.4994 6.57613 15.5 6V1C15.5 0.867392 15.4474 0.740215 15.3536 0.646447C15.2598 0.552678 15.1327 0.5 15 0.5Z" fill="currentColor"/>
    <path d="M11 6.5C11.1326 6.5 11.2598 6.44732 11.3536 6.35355C11.4473 6.25979 11.5 6.13261 11.5 6V1C11.5 0.867392 11.4473 0.740215 11.3536 0.646447C11.2598 0.552678 11.1326 0.5 11 0.5C10.8674 0.5 10.7402 0.552678 10.6464 0.646447C10.5527 0.740215 10.5 0.867392 10.5 1V6C10.5 6.13261 10.5527 6.25979 10.6464 6.35355C10.7402 6.44732 10.8674 6.5 11 6.5ZM13 6.5C13.1326 6.5 13.2598 6.44732 13.3536 6.35355C13.4473 6.25979 13.5 6.13261 13.5 6V1C13.5 0.867392 13.4473 0.740215 13.3536 0.646447C13.2598 0.552678 13.1326 0.5 13 0.5C12.8674 0.5 12.7402 0.552678 12.6464 0.646447C12.5527 0.740215 12.5 0.867392 12.5 1V6C12.5 6.13261 12.5527 6.25979 12.6464 6.35355C12.7402 6.44732 12.8674 6.5 13 6.5Z" fill="currentColor"/>
  </g>
</svg>