<svg xmlns="http://www.w3.org/2000/svg" viewBox="0 0 12 16" fill="none">
  <path fill-rule="evenodd" clip-rule="evenodd" d="M5.49999 14.3821C5.50001 14.6074 5.57609 14.826 5.71591 15.0027C5.85573 15.1793 6.05109 15.3036 6.27035 15.3553C6.48961 15.407 6.71991 15.3832 6.92394 15.2877C7.12797 15.1922 7.29378 15.0306 7.39449 14.8291L11.0855 7.4471C11.1618 7.29465 11.1979 7.12522 11.1903 6.9549C11.1826 6.78459 11.1316 6.61906 11.0419 6.47404C10.9523 6.32903 10.827 6.20935 10.6781 6.1264C10.5292 6.04344 10.3615 5.99996 10.191 6.0001H6.99999C6.86738 6.0001 6.74021 5.94742 6.64644 5.85365C6.55267 5.75988 6.49999 5.63271 6.49999 5.5001V1.6181C6.49998 1.39282 6.42389 1.17415 6.28407 0.99751C6.14426 0.820873 5.94889 0.696622 5.72963 0.644889C5.51037 0.593157 5.28007 0.616973 5.07604 0.712479C4.87201 0.807985 4.70621 0.969586 4.60549 1.1711L0.914491 8.5531C0.838161 8.70554 0.802093 8.87497 0.809716 9.04529C0.817339 9.2156 0.8684 9.38114 0.958044 9.52615C1.04769 9.67117 1.17294 9.79084 1.32188 9.8738C1.47082 9.95675 1.63851 10.0002 1.80899 10.0001H4.99999C5.1326 10.0001 5.25978 10.0528 5.35354 10.1465C5.44731 10.2403 5.49999 10.3675 5.49999 10.5001V14.3821ZM5.49999 1.6181V5.5001C5.49999 5.89792 5.65803 6.27945 5.93933 6.56076C6.22064 6.84206 6.60217 7.0001 6.99999 7.0001H10.191L6.49999 14.3821V10.5001C6.49999 10.1023 6.34196 9.72074 6.06065 9.43944C5.77935 9.15813 5.39782 9.0001 4.99999 9.0001H1.80899L5.49999 1.6181Z" fill="currentColor"/>
</svg>