<svg xmlns="http://www.w3.org/2000/svg" width="16" height="16" viewBox="0 0 16 16" fill="none">
  <g clip-path="url(#clip0_131_3538)">
    <path d="M5.15788 3.80859C4.3826 3.80859 3.75188 4.43934 3.75188 5.21459C3.75188 5.98984 4.38263 6.62059 5.15788 6.62059C5.93313 6.62059 6.56388 5.98984 6.56388 5.21459C6.56388 4.43934 5.93317 3.80859 5.15788 3.80859ZM5.15788 5.68328C4.89945 5.68328 4.68923 5.47303 4.68923 5.21463C4.68923 4.95622 4.89948 4.74597 5.15788 4.74597C5.41629 4.74597 5.62654 4.95622 5.62654 5.21463C5.62654 5.47303 5.41632 5.68328 5.15788 5.68328ZM3.2832 6.62062C2.50792 6.62062 1.8772 7.25138 1.8772 8.02663C1.8772 8.80191 2.50795 9.43262 3.2832 9.43262C4.05845 9.43262 4.6892 8.80188 4.6892 8.02663C4.68923 7.25138 4.05848 6.62062 3.2832 6.62062ZM3.2832 8.49531C3.02476 8.49531 2.81454 8.28506 2.81454 8.02666C2.81454 7.76822 3.02479 7.558 3.2832 7.558C3.5416 7.558 3.75185 7.76825 3.75185 8.02666C3.75188 8.28506 3.54163 8.49531 3.2832 8.49531ZM4.22054 10.37C3.44526 10.37 2.81454 11.0008 2.81454 11.776C2.81454 12.5513 3.44529 13.182 4.22054 13.182C4.99579 13.182 5.62654 12.5513 5.62654 11.776C5.62657 11.0007 4.99582 10.37 4.22054 10.37ZM4.22054 12.2447C3.9621 12.2447 3.75188 12.0344 3.75188 11.776C3.75188 11.5176 3.96213 11.3073 4.22054 11.3073C4.47895 11.3073 4.6892 11.5176 4.6892 11.776C4.68923 12.0344 4.47898 12.2447 4.22054 12.2447Z" fill="currentColor"/>
    <path d="M15.3301 2.22569C15.8002 1.53619 16.2782 0.683095 15.7975 0.20244C15.5707 -0.0244037 15.2294 -0.0608098 14.783 0.0942523C14.4972 0.193502 14.1503 0.373814 13.7519 0.630189C12.9315 1.15813 11.8673 2.03072 10.8855 3.07225C9.08516 1.89856 6.85454 1.64397 4.88507 2.274C1.6313 3.3149 -0.55926 6.63955 0.129395 10.3188C0.637425 13.0328 2.78936 15.2485 5.48417 15.8322C6.00038 15.944 6.51816 16 7.03247 16C7.38338 16 7.73272 15.9739 8.07875 15.9217C8.82656 15.8089 9.4401 15.286 9.67988 14.557C9.92725 13.8052 9.73641 12.9936 9.18172 12.4389C8.8155 12.073 8.81525 11.4799 9.18185 11.1137C9.54834 10.7472 10.1407 10.7472 10.5072 11.1137C11.0614 11.6678 11.8715 11.8588 12.6212 11.6121C13.3492 11.3726 13.8715 10.7589 13.9844 10.0106C14.2327 8.36452 13.9025 6.56336 12.8759 5.03599C13.6997 4.25796 14.688 3.16734 15.3301 2.22569ZM14.95 1.03538C14.7216 1.51425 14.2579 2.12644 13.9227 2.53762L13.4116 2.0265C13.8381 1.69253 14.4514 1.25322 14.95 1.03538ZM13.0575 9.87076C12.9968 10.2734 12.7242 10.5914 12.3283 10.7217C12.0055 10.8279 11.5317 10.8125 11.17 10.4508C10.4392 9.71998 9.24991 9.71992 8.51919 10.4507C7.78632 11.183 7.78604 12.3694 8.51906 13.1019C8.88125 13.464 8.89625 13.9397 8.78953 14.2641C8.65894 14.661 8.34097 14.9342 7.93897 14.9948C7.19863 15.1065 6.43954 15.08 5.6826 14.916C3.35167 14.4112 1.49027 12.4944 1.05074 10.1463C0.247582 5.85562 3.92011 2.18525 8.21457 2.98912C8.933 3.12359 9.62738 3.39415 10.2505 3.779C9.71356 4.40777 9.12453 5.18824 8.86222 5.84808C8.22897 5.66821 7.51904 5.82668 7.02147 6.32424C6.80104 6.54465 6.63794 6.81836 6.54979 7.11577C6.40779 7.59483 5.9652 7.96108 5.42229 8.0488C5.33708 8.06256 5.25733 8.09958 5.19183 8.15579C5.12633 8.21199 5.07762 8.2852 5.05107 8.36732C5.02453 8.44945 5.02118 8.53731 5.04139 8.62122C5.06161 8.70513 5.1046 8.78183 5.16564 8.84286L5.2982 8.97539C5.88241 9.55964 6.65919 9.88139 7.48541 9.88139C8.31163 9.88139 9.08841 9.55964 9.67263 8.97539C10.1908 8.4572 10.3412 7.70871 10.1246 7.05636C10.7817 6.78461 11.5517 6.20068 12.171 5.67052C13.0108 6.98143 13.2637 8.50349 13.0575 9.87076ZM9.00981 8.31264C8.6026 8.71983 8.06122 8.94411 7.48535 8.94411C7.10779 8.94411 6.74501 8.84767 6.4252 8.66652C6.91585 8.37683 7.28835 7.92205 7.44838 7.38217C7.49294 7.23193 7.57229 7.09899 7.68422 6.98705C8.04963 6.62158 8.64435 6.62158 9.00981 6.98705C9.37272 7.35008 9.37731 7.94514 9.00981 8.31264ZM10.5865 5.71627C10.1767 5.99833 9.90109 6.13808 9.72716 6.20721C9.79634 6.03327 9.93603 5.75771 10.2181 5.34793C10.8577 4.41874 11.8323 3.38631 12.6887 2.62912L13.3096 3.25009C12.5265 4.11606 11.5372 5.06187 10.5865 5.71627Z" fill="currentColor"/>
  </g>
</svg>