<svg xmlns="http://www.w3.org/2000/svg" viewBox="0 0 16 16" fill="none">
  <g clip-path="url(#clip0_131_3508)">
    <path d="M11.5379 4.99419C8.68201 3.25666 10.0213 0.80425 10.0787 0.702313C10.1197 0.631044 10.1412 0.550251 10.1411 0.468041C10.141 0.385832 10.1193 0.305098 10.0781 0.233943C10.0369 0.162788 9.97774 0.103715 9.90652 0.0626523C9.8353 0.02159 9.75453 -1.69781e-05 9.67232 1.00098e-08C8.20223 1.00098e-08 7.05104 0.417688 6.25076 1.2415C4.88329 2.64916 4.94673 4.84 4.97379 5.77556C4.97679 5.87919 4.97939 5.96875 4.97939 6.03525C4.97939 6.72988 5.09082 7.37116 5.18917 7.93694C5.25254 8.30153 5.30726 8.61641 5.31698 8.86397C5.32739 9.12897 5.27901 9.18972 5.27695 9.19216C5.27004 9.20034 5.21254 9.23094 5.05707 9.23094C4.87976 9.23094 4.74904 9.173 4.63323 9.04316C4.18086 8.53591 4.14957 7.15084 4.23607 6.39731C4.24371 6.33163 4.23736 6.26508 4.21745 6.20203C4.19754 6.13897 4.16451 6.08084 4.12054 6.03146C4.07656 5.98208 4.02264 5.94256 3.96231 5.9155C3.90198 5.88843 3.8366 5.87444 3.77048 5.87444C2.55345 5.87444 1.64404 7.86469 1.64404 9.64419C1.64404 10.4807 1.81229 11.3002 2.14414 12.0798C2.46495 12.8335 2.92242 13.5138 3.50389 14.1016C4.71489 15.3258 6.31154 16 7.99979 16C9.69482 16 11.2911 15.3353 12.4945 14.1284C13.6948 12.9247 14.3559 11.3321 14.3559 9.64412C14.3558 7.49031 12.6706 5.68328 11.5379 4.99419ZM7.99979 15.0625C5.06282 15.0625 2.58157 12.5812 2.58157 9.64412C2.58157 8.92984 2.75201 8.18006 3.04917 7.58709C3.11857 7.44856 3.18979 7.32972 3.26007 7.22959C3.26792 8.00294 3.39042 9.05716 3.93276 9.66622C4.22532 9.99475 4.61411 10.1684 5.05711 10.1684C5.47095 10.1684 5.78632 10.043 5.99439 9.79559C6.38339 9.33316 6.26398 8.64616 6.11286 7.77637C6.02101 7.24794 5.91692 6.64897 5.91692 6.03522C5.91692 5.95512 5.91414 5.85934 5.91095 5.74837C5.88529 4.86219 5.83189 3.01816 6.92323 1.89475C7.41314 1.39041 8.09714 1.08347 8.96245 0.978437C8.86476 1.30281 8.78054 1.71459 8.77729 2.17566C8.77011 3.19153 9.15867 4.64406 11.0507 5.79513C11.9661 6.35203 13.4184 7.88944 13.4184 9.64416C13.4183 12.6318 10.9876 15.0625 7.99979 15.0625Z" fill="currentColor"/>
  </g>
</svg>