<svg  viewBox="0 0 18 18" fill="none" xmlns="http://www.w3.org/2000/svg">
<path id="Icon" d="M6 12V14.1C6 14.9401 6 15.3601 6.16349 15.681C6.3073 15.9632 6.53677 16.1927 6.81901 16.3365C7.13988 16.5 7.55992 16.5 8.4 16.5H14.1C14.9401 16.5 15.3601 16.5 15.681 16.3365C15.9632 16.1927 16.1927 15.9632 16.3365 15.681C16.5 15.3601 16.5 14.9401 16.5 14.1V8.4C16.5 7.55992 16.5 7.13988 16.3365 6.81901C16.1927 6.53677 15.9632 6.3073 15.681 6.16349C15.3601 6 14.9401 6 14.1 6H12M3.9 12H9.6C10.4401 12 10.8601 12 11.181 11.8365C11.4632 11.6927 11.6927 11.4632 11.8365 11.181C12 10.8601 12 10.4401 12 9.6V3.9C12 3.05992 12 2.63988 11.8365 2.31901C11.6927 2.03677 11.4632 1.8073 11.181 1.66349C10.8601 1.5 10.4401 1.5 9.6 1.5H3.9C3.05992 1.5 2.63988 1.5 2.31901 1.66349C2.03677 1.8073 1.8073 2.03677 1.66349 2.31901C1.5 2.63988 1.5 3.05992 1.5 3.9V9.6C1.5 10.4401 1.5 10.8601 1.66349 11.181C1.8073 11.4632 2.03677 11.6927 2.31901 11.8365C2.63988 12 3.05992 12 3.9 12Z" stroke="currentColor" stroke-width="1.5" stroke-linecap="round" stroke-linejoin="round"/>

</svg>
