<svg xmlns="http://www.w3.org/2000/svg" viewBox="0 0 16 16" fill="none">
  <path d="M10.6666 10.6663V12.533C10.6666 13.2797 10.6666 13.6531 10.5213 13.9383C10.3934 14.1892 10.1895 14.3932 9.93857 14.521C9.65336 14.6663 9.27999 14.6663 8.53325 14.6663H3.46659C2.71985 14.6663 2.34648 14.6663 2.06126 14.521C1.81038 14.3932 1.60641 14.1892 1.47858 13.9383C1.33325 13.6531 1.33325 13.2797 1.33325 12.533V7.46634C1.33325 6.7196 1.33325 6.34624 1.47858 6.06102C1.60641 5.81014 1.81038 5.60616 2.06126 5.47833C2.34648 5.33301 2.71985 5.33301 3.46659 5.33301H5.33325M7.46659 10.6663H12.5333C13.28 10.6663 13.6534 10.6663 13.9386 10.521C14.1895 10.3932 14.3934 10.1892 14.5213 9.93833C14.6666 9.65311 14.6666 9.27974 14.6666 8.53301V3.46634C14.6666 2.7196 14.6666 2.34624 14.5213 2.06102C14.3934 1.81014 14.1895 1.60616 13.9386 1.47833C13.6534 1.33301 13.28 1.33301 12.5333 1.33301H7.46659C6.71985 1.33301 6.34648 1.33301 6.06126 1.47833C5.81038 1.60616 5.60641 1.81014 5.47858 2.06102C5.33325 2.34624 5.33325 2.7196 5.33325 3.46634V8.53301C5.33325 9.27974 5.33325 9.65311 5.47858 9.93833C5.60641 10.1892 5.81038 10.3932 6.06126 10.521C6.34648 10.6663 6.71985 10.6663 7.46659 10.6663Z" stroke="currentColor" stroke-linecap="round" stroke-linejoin="round"/>
</svg>