<svg xmlns="http://www.w3.org/2000/svg" width="32" height="32" viewBox="0 0 32 32" fill="none">
  <path d="M17.3337 30.3332H6.66699C3.44033 30.3332 1.66699 28.5598 1.66699 25.3332V14.6665C1.66699 11.4398 3.44033 9.6665 6.66699 9.6665H13.3337C13.8803 9.6665 14.3337 10.1198 14.3337 10.6665V25.3332C14.3337 27.4398 15.227 28.3332 17.3337 28.3332C17.8803 28.3332 18.3337 28.7865 18.3337 29.3332C18.3337 29.8798 17.8803 30.3332 17.3337 30.3332ZM6.66699 11.6665C4.56033 11.6665 3.66699 12.5598 3.66699 14.6665V25.3332C3.66699 27.4398 4.56033 28.3332 6.66699 28.3332H13.067C12.587 27.5465 12.3337 26.5465 12.3337 25.3332V11.6665H6.66699Z" fill="currentColor"/>
  <path d="M13.3337 11.6668H6.66699C6.12033 11.6668 5.66699 11.2135 5.66699 10.6668V8.00016C5.66699 5.9735 7.30699 4.3335 9.33366 4.3335H13.4803C13.787 4.3335 14.0803 4.48016 14.267 4.72016C14.4537 4.9735 14.5203 5.2935 14.4403 5.58683C14.3603 5.88016 14.3337 6.2135 14.3337 6.66683V10.6668C14.3337 11.2135 13.8803 11.6668 13.3337 11.6668ZM7.66699 9.66683H12.3337V6.3335H9.33366C8.41366 6.3335 7.66699 7.08016 7.66699 8.00016V9.66683ZM18.667 18.3335C18.1203 18.3335 17.667 17.8802 17.667 17.3335V10.6668C17.667 10.1202 18.1203 9.66683 18.667 9.66683C19.2137 9.66683 19.667 10.1202 19.667 10.6668V17.3335C19.667 17.8802 19.2137 18.3335 18.667 18.3335ZM24.0003 18.3335C23.4537 18.3335 23.0003 17.8802 23.0003 17.3335V10.6668C23.0003 10.1202 23.4537 9.66683 24.0003 9.66683C24.547 9.66683 25.0003 10.1202 25.0003 10.6668V17.3335C25.0003 17.8802 24.547 18.3335 24.0003 18.3335ZM24.0003 30.3335H18.667C18.1203 30.3335 17.667 29.8802 17.667 29.3335V24.0002C17.667 22.7202 18.7203 21.6668 20.0003 21.6668H22.667C23.947 21.6668 25.0003 22.7202 25.0003 24.0002V29.3335C25.0003 29.8802 24.547 30.3335 24.0003 30.3335ZM19.667 28.3335H23.0003V24.0002C23.0003 23.8135 22.8537 23.6668 22.667 23.6668H20.0003C19.8137 23.6668 19.667 23.8135 19.667 24.0002V28.3335ZM8.00033 23.6668C7.45366 23.6668 7.00033 23.2135 7.00033 22.6668V17.3335C7.00033 16.7868 7.45366 16.3335 8.00033 16.3335C8.54699 16.3335 9.00033 16.7868 9.00033 17.3335V22.6668C9.00033 23.2135 8.54699 23.6668 8.00033 23.6668Z" fill="currentColor"/>
  <path d="M25.333 30.3332H17.333C14.1063 30.3332 12.333 28.5598 12.333 25.3332V6.6665C12.333 3.43984 14.1063 1.6665 17.333 1.6665H25.333C28.5597 1.6665 30.333 3.43984 30.333 6.6665V25.3332C30.333 28.5598 28.5597 30.3332 25.333 30.3332ZM17.333 3.6665C15.2263 3.6665 14.333 4.55984 14.333 6.6665V25.3332C14.333 27.4398 15.2263 28.3332 17.333 28.3332H25.333C27.4397 28.3332 28.333 27.4398 28.333 25.3332V6.6665C28.333 4.55984 27.4397 3.6665 25.333 3.6665H17.333Z" fill="currentColor"/>
</svg>