<svg xmlns="http://www.w3.org/2000/svg" viewBox="0 0 18 18" fill="none">
  <path fill-rule="evenodd" clip-rule="evenodd" d="M1.6875 3.9375C1.6875 3.34076 1.92455 2.76847 2.34651 2.34651C2.76847 1.92455 3.34076 1.6875 3.9375 1.6875H14.0625C14.6592 1.6875 15.2315 1.92455 15.6535 2.34651C16.0754 2.76847 16.3125 3.34076 16.3125 3.9375V11.25C16.3125 11.8467 16.0754 12.419 15.6535 12.841C15.2315 13.2629 14.6592 13.5 14.0625 13.5H11.8125V13.6927C11.8125 14.1405 11.9903 14.5702 12.3068 14.886L12.7725 15.3525C12.8511 15.4312 12.9046 15.5313 12.9262 15.6404C12.9479 15.7494 12.9367 15.8625 12.8942 15.9652C12.8517 16.0679 12.7797 16.1557 12.6872 16.2175C12.5948 16.2794 12.4862 16.3124 12.375 16.3125H5.625C5.51382 16.3124 5.40516 16.2794 5.31275 16.2175C5.22034 16.1557 5.14832 16.0679 5.10578 15.9652C5.06325 15.8625 5.05211 15.7494 5.07378 15.6404C5.09544 15.5313 5.14893 15.4312 5.2275 15.3525L5.69325 14.886C6.00953 14.5697 6.1873 14.1408 6.1875 13.6935V13.5H3.9375C3.34076 13.5 2.76847 13.2629 2.34651 12.841C1.92455 12.419 1.6875 11.8467 1.6875 11.25V3.9375ZM2.8125 3.9375V9.5625C2.8125 9.86087 2.93103 10.147 3.142 10.358C3.35298 10.569 3.63913 10.6875 3.9375 10.6875H14.0625C14.3609 10.6875 14.647 10.569 14.858 10.358C15.069 10.147 15.1875 9.86087 15.1875 9.5625V3.9375C15.1875 3.63913 15.069 3.35298 14.858 3.142C14.647 2.93103 14.3609 2.8125 14.0625 2.8125H3.9375C3.63913 2.8125 3.35298 2.93103 3.142 3.142C2.93103 3.35298 2.8125 3.63913 2.8125 3.9375Z" fill="currentColor"/>
</svg>