<svg xmlns="http://www.w3.org/2000/svg" width="16" height="17" viewBox="0 0 16 17" fill="none">
  <path fill-rule="evenodd" clip-rule="evenodd" d="M6.33341 3.83333C6.33341 4.5697 5.73645 5.16667 5.00008 5.16667C4.26371 5.16667 3.66675 4.5697 3.66675 3.83333C3.66675 3.09695 4.26371 2.5 5.00008 2.5C5.73645 2.5 6.33341 3.09695 6.33341 3.83333ZM5.00008 9.83333C5.73645 9.83333 6.33341 9.23637 6.33341 8.5C6.33341 7.76363 5.73645 7.16667 5.00008 7.16667C4.26371 7.16667 3.66675 7.76363 3.66675 8.5C3.66675 9.23637 4.26371 9.83333 5.00008 9.83333ZM5.00008 14.5C5.73645 14.5 6.33341 13.903 6.33341 13.1667C6.33341 12.4303 5.73645 11.8333 5.00008 11.8333C4.26371 11.8333 3.66675 12.4303 3.66675 13.1667C3.66675 13.903 4.26371 14.5 5.00008 14.5Z" fill="currentColor"/>
  <path fill-rule="evenodd" clip-rule="evenodd" d="M12.3334 3.83333C12.3334 4.5697 11.7364 5.16667 11.0001 5.16667C10.2637 5.16667 9.66675 4.5697 9.66675 3.83333C9.66675 3.09695 10.2637 2.5 11.0001 2.5C11.7364 2.5 12.3334 3.09695 12.3334 3.83333ZM11.0001 9.83333C11.7364 9.83333 12.3334 9.23637 12.3334 8.5C12.3334 7.76363 11.7364 7.16667 11.0001 7.16667C10.2637 7.16667 9.66675 7.76363 9.66675 8.5C9.66675 9.23637 10.2637 9.83333 11.0001 9.83333ZM11.0001 14.5C11.7364 14.5 12.3334 13.903 12.3334 13.1667C12.3334 12.4303 11.7364 11.8333 11.0001 11.8333C10.2637 11.8333 9.66675 12.4303 9.66675 13.1667C9.66675 13.903 10.2637 14.5 11.0001 14.5Z" fill="currentColor"/>
</svg>