<svg viewBox="0 0 20 21" fill="none" xmlns="http://www.w3.org/2000/svg">
<g id="edit-square">
<path id="Icon" d="M9.1665 3.8332H5.6665C4.26637 3.8332 3.56631 3.8332 3.03153 4.10568C2.56112 4.34536 2.17867 4.72782 1.93899 5.19822C1.6665 5.733 1.6665 6.43307 1.6665 7.8332V14.8332C1.6665 16.2333 1.6665 16.9334 1.93899 17.4682C2.17867 17.9386 2.56112 18.321 3.03153 18.5607C3.56631 18.8332 4.26637 18.8332 5.6665 18.8332H12.6665C14.0666 18.8332 14.7667 18.8332 15.3015 18.5607C15.7719 18.321 16.1543 17.9386 16.394 17.4682C16.6665 16.9334 16.6665 16.2333 16.6665 14.8332V11.3332M6.66648 13.8332H8.06193C8.46959 13.8332 8.67341 13.8332 8.86522 13.7871C9.03528 13.7463 9.19786 13.679 9.34698 13.5876C9.51517 13.4845 9.6593 13.3404 9.94755 13.0521L17.9165 5.0832C18.6069 4.39284 18.6069 3.27355 17.9165 2.5832C17.2261 1.89284 16.1069 1.89284 15.4165 2.5832L7.44753 10.5521C7.15928 10.8404 7.01515 10.9845 6.91208 11.1527C6.8207 11.3018 6.75336 11.4644 6.71253 11.6345C6.66648 11.8263 6.66648 12.0301 6.66648 12.4378V13.8332Z" stroke="currentColor" stroke-width="1.66667" stroke-linecap="round" stroke-linejoin="round"/>
</g>
</svg>
