<svg xmlns="http://www.w3.org/2000/svg" width="32" height="32" viewBox="0 0 32 32" fill="none">
  <path d="M6.24565 30.6668H9.04065C9.60898 30.6668 10.07 30.2352 10.07 29.6668C10.07 29.0985 9.60932 28.6668 9.04065 28.6668H6.24565C4.72232 28.6668 3.33398 27.2605 3.33398 25.6792V11.0002H28.334V11.6675C28.334 12.2358 28.7657 12.6968 29.334 12.6968C29.9023 12.6968 30.334 12.2362 30.334 11.6675V6.3225C30.334 3.64083 28.2077 1.3335 25.555 1.3335H6.24565C3.58732 1.3335 1.33398 3.5945 1.33398 6.3225V25.6795C1.33398 28.3958 3.58732 30.6668 6.24565 30.6668ZM3.33398 6.3225C3.33398 4.7565 4.74798 3.3335 6.24565 3.3335H25.555C27.092 3.3335 28.334 4.7565 28.334 6.3225V9.00016H3.33398V6.3225Z" fill="currentColor"/>
  <path d="M24.8907 5.66699H24.479C23.9107 5.66699 23.4497 6.09866 23.4497 6.66699C23.4497 7.23533 23.9104 7.66699 24.479 7.66699H24.8907C25.459 7.66699 25.92 7.23533 25.92 6.66699C25.92 6.09866 25.459 5.66699 24.8907 5.66699ZM21.3914 5.66699H20.9797C20.4114 5.66699 19.9504 6.09866 19.9504 6.66699C19.9504 7.23533 20.411 7.66699 20.9797 7.66699H21.3914C21.9597 7.66699 22.4207 7.23533 22.4207 6.66699C22.4207 6.09866 21.9597 5.66699 21.3914 5.66699ZM17.686 5.66699H17.2744C16.706 5.66699 16.245 6.09866 16.245 6.66699C16.245 7.23533 16.7057 7.66699 17.2744 7.66699H17.686C18.2544 7.66699 18.7154 7.23533 18.7154 6.66699C18.7154 6.09866 18.2544 5.66699 17.686 5.66699ZM28.2484 15.1183C27.6874 14.557 26.9414 14.248 26.1477 14.248C25.354 14.248 24.608 14.557 24.047 15.1183L15.2594 23.9063C15.046 24.1191 14.9119 24.3985 14.8794 24.698L14.4117 29.048C14.3754 30.7083 16.0737 30.701 16.1587 30.6867L20.246 29.9797C20.5142 29.9342 20.7615 29.8061 20.9534 29.6133L29.7477 20.819C30.906 19.6607 30.906 17.776 29.7477 16.6177L28.2484 15.1183ZM19.5647 27.7997L16.7714 28.2827L17.095 25.273L23.405 18.963L25.9034 21.4613L19.5647 27.7997ZM28.1467 19.218L27.5044 19.86L25.006 17.3617L25.6484 16.7193C25.9154 16.4527 26.3807 16.4527 26.6474 16.7193L28.1467 18.2187C28.279 18.3513 28.3532 18.531 28.3532 18.7183C28.3532 18.9057 28.279 19.0853 28.1467 19.218Z" fill="currentColor"/>
</svg>