<svg xmlns="http://www.w3.org/2000/svg" viewBox="0 0 16 17" fill="none">
    <path d="M2.22193 4.34388C1.72558 3.78914 1.47741 3.51177 1.46805 3.27604C1.45992 3.07126 1.54792 2.87444 1.70595 2.74396C1.88786 2.59375 2.26005 2.59375 3.00444 2.59375H12.7451C13.4895 2.59375 13.8617 2.59375 14.0436 2.74396C14.2016 2.87444 14.2896 3.07126 14.2815 3.27604C14.2721 3.51177 14.024 3.78914 13.5276 4.34388L9.78289 8.52916C9.68395 8.63974 9.63448 8.69503 9.59921 8.75796C9.56792 8.81377 9.54497 8.87385 9.53107 8.9363C9.5154 9.00672 9.5154 9.08091 9.5154 9.22929V12.7383C9.5154 12.8666 9.5154 12.9308 9.4947 12.9863C9.47641 13.0353 9.44666 13.0793 9.40794 13.1144C9.36411 13.1543 9.30454 13.1781 9.18538 13.2258L6.95413 14.1183C6.71293 14.2147 6.59233 14.263 6.49551 14.2429C6.41085 14.2253 6.33656 14.175 6.28878 14.1029C6.23415 14.0205 6.23415 13.8906 6.23415 13.6308V9.22929C6.23415 9.08091 6.23415 9.00672 6.21848 8.9363C6.20458 8.87385 6.18162 8.81377 6.15034 8.75796C6.11506 8.69503 6.06559 8.63974 5.96665 8.52916L2.22193 4.34388Z" stroke="currentColor" stroke-width="1.5" stroke-linecap="round" stroke-linejoin="round"/>

</svg>