<svg xmlns="http://www.w3.org/2000/svg" width="32" height="32" viewBox="0 0 32 32" fill="none">
  <path d="M10.0527 31.4416C9.70082 31.4416 9.3489 31.2656 8.99697 31.0897C8.11716 30.5618 7.76523 29.682 7.94119 28.6262L10.2287 19.4761H6.18156C5.47771 19.4761 4.77386 19.1242 4.42193 18.5963C4.07001 18.0684 3.89404 17.3646 4.07001 16.6607L8.82101 2.58367C9.17294 1.70385 9.87679 1 10.9326 1H21.3144C22.0182 1 22.7221 1.35193 23.074 1.87981C23.4259 2.4077 23.6019 3.28752 23.25 3.99137L20.2586 11.5578H25.7135C26.5933 11.5578 27.4731 12.0857 27.825 12.9655C28.1769 13.8453 28.001 14.7251 27.2971 15.429L11.6364 31.0897C11.2845 31.2656 10.5806 31.4416 10.0527 31.4416ZM6.70945 16.8367H10.7566C11.4605 16.8367 11.9883 17.1886 12.5162 17.7165C12.8682 18.2444 13.0441 18.9482 12.8682 19.6521L10.7566 28.0983L24.4817 14.3732H19.3788C18.6749 14.3732 17.9711 14.0213 17.6192 13.4934C17.4432 12.6136 17.2672 11.7337 17.6192 11.0299L20.6105 3.46348H11.1085L6.70945 16.8367Z" fill="currentColor"/>
</svg>