<svg viewBox="0 0 17 17" fill="none" xmlns="http://www.w3.org/2000/svg">
<g id="folder" clip-path="url(#clip0_1739_49516)">
<path id="Icon" d="M8.53125 5.21875L7.79918 3.7546C7.58848 3.33321 7.48313 3.12251 7.32596 2.96858C7.18697 2.83245 7.01946 2.72892 6.83555 2.66548C6.62758 2.59375 6.39201 2.59375 5.92088 2.59375H3.4125C2.67743 2.59375 2.3099 2.59375 2.02914 2.7368C1.78217 2.86264 1.58139 3.06342 1.45555 3.31039C1.3125 3.59115 1.3125 3.95868 1.3125 4.69375V5.21875M1.3125 5.21875H11.2875C12.3901 5.21875 12.9414 5.21875 13.3625 5.43333C13.733 5.62208 14.0342 5.92326 14.2229 6.29371C14.4375 6.71485 14.4375 7.26615 14.4375 8.36875V11.2563C14.4375 12.3589 14.4375 12.9102 14.2229 13.3313C14.0342 13.7017 13.733 14.0029 13.3625 14.1917C12.9414 14.4063 12.3901 14.4063 11.2875 14.4063H4.4625C3.3599 14.4063 2.8086 14.4063 2.38746 14.1917C2.01701 14.0029 1.71583 13.7017 1.52708 13.3313C1.3125 12.9102 1.3125 12.3589 1.3125 11.2563V5.21875Z" stroke="currentColor" stroke-width="1.5" stroke-linecap="round" stroke-linejoin="round"/>
</g>
</svg>
