<svg viewBox="0 0 14 14" fill="none" xmlns="http://www.w3.org/2000/svg">
<path d="M1.66675 13L1.66675 1.66667M1.66675 7.66667H6.60008C6.97345 7.66667 7.16013 7.66667 7.30274 7.594C7.42818 7.53009 7.53017 7.4281 7.59409 7.30266C7.66675 7.16005 7.66675 6.97337 7.66675 6.6V2.06667C7.66675 1.6933 7.66675 1.50661 7.59409 1.36401C7.53017 1.23856 7.42818 1.13658 7.30274 1.07266C7.16013 1 6.97345 1 6.60008 1H2.73341C2.36005 1 2.17336 1 2.03075 1.07266C1.90531 1.13658 1.80333 1.23856 1.73941 1.36401C1.66675 1.50661 1.66675 1.6933 1.66675 2.06667V7.66667ZM7.66675 2.33333H11.9334C12.3068 2.33333 12.4935 2.33333 12.6361 2.406C12.7615 2.46991 12.8635 2.5719 12.9274 2.69734C13.0001 2.83995 13.0001 3.02663 13.0001 3.4V7.93333C13.0001 8.3067 13.0001 8.49339 12.9274 8.63599C12.8635 8.76144 12.7615 8.86342 12.6361 8.92734C12.4935 9 12.3068 9 11.9334 9H8.73341C8.36005 9 8.17336 9 8.03075 8.92734C7.90531 8.86342 7.80333 8.76144 7.73941 8.63599C7.66675 8.49339 7.66675 8.3067 7.66675 7.93333V2.33333Z" stroke="#344054" stroke-width="1.5" stroke-linecap="round" stroke-linejoin="round"/>
</svg>
