<svg viewBox="0 0 56 56" fill="none" xmlns="http://www.w3.org/2000/svg">
<path id="Icon" d="M9.96757 48.3651L25.3595 32.9732C26.2835 32.0492 26.7455 31.5871 27.2783 31.414C27.7469 31.2618 28.2518 31.2618 28.7204 31.414C29.2532 31.5871 29.7152 32.0492 30.6392 32.9732L45.9285 48.2625M32.666 35L39.3595 28.3065C40.2835 27.3825 40.7455 26.9205 41.2783 26.7474C41.7469 26.5951 42.2518 26.5951 42.7204 26.7474C43.2532 26.9205 43.7152 27.3825 44.6392 28.3065L51.3327 35M23.3327 21C23.3327 23.5773 21.2433 25.6667 18.666 25.6667C16.0887 25.6667 13.9993 23.5773 13.9993 21C13.9993 18.4227 16.0887 16.3333 18.666 16.3333C21.2433 16.3333 23.3327 18.4227 23.3327 21ZM15.866 49H40.1327C44.053 49 46.0132 49 47.5106 48.237C48.8277 47.5659 49.8986 46.4951 50.5697 45.1779C51.3327 43.6805 51.3327 41.7204 51.3327 37.8V18.2C51.3327 14.2796 51.3327 12.3194 50.5697 10.8221C49.8986 9.50493 48.8277 8.43407 47.5106 7.76295C46.0132 7 44.053 7 40.1327 7H15.866C11.9456 7 9.98546 7 8.48808 7.76295C7.17095 8.43407 6.10008 9.50493 5.42897 10.8221C4.66602 12.3194 4.66602 14.2796 4.66602 18.2V37.8C4.66602 41.7204 4.66602 43.6805 5.42897 45.1779C6.10008 46.4951 7.17095 47.5659 8.48808 48.237C9.98546 49 11.9456 49 15.866 49Z" stroke="#D0D5DD" stroke-width="2" stroke-linecap="round" stroke-linejoin="round"/>
</svg>
