<svg viewBox="0 0 17 16" fill="none" xmlns="http://www.w3.org/2000/svg">
<path d="M2.75004 10.6665V4.79984C2.75004 4.0531 2.75004 3.67973 2.89537 3.39452C3.0232 3.14363 3.22717 2.93966 3.47805 2.81183C3.76327 2.6665 4.13664 2.6665 4.88337 2.6665H12.6167C13.3634 2.6665 13.7368 2.6665 14.022 2.81183C14.2729 2.93966 14.4769 3.14363 14.6047 3.39452C14.75 3.67973 14.75 4.0531 14.75 4.79984V10.6665H11.1919C11.0288 10.6665 10.9473 10.6665 10.8706 10.6849C10.8025 10.7013 10.7375 10.7282 10.6779 10.7647C10.6106 10.806 10.5529 10.8636 10.4376 10.9789L10.3958 11.0208C10.2805 11.1361 10.2228 11.1937 10.1556 11.2349C10.0959 11.2715 10.0309 11.2984 9.96286 11.3148C9.88614 11.3332 9.80461 11.3332 9.64155 11.3332H7.85854C7.69547 11.3332 7.61394 11.3332 7.53722 11.3148C7.4692 11.2984 7.40417 11.2715 7.34452 11.2349C7.27724 11.1937 7.21959 11.1361 7.10429 11.0208L7.06246 10.9789C6.94716 10.8636 6.88951 10.806 6.82223 10.7647C6.76258 10.7282 6.69755 10.7013 6.62953 10.6849C6.5528 10.6665 6.47127 10.6665 6.30821 10.6665H2.75004ZM2.75004 10.6665C2.38185 10.6665 2.08337 10.965 2.08337 11.3332V11.5554C2.08337 11.9687 2.08337 12.1754 2.12881 12.3449C2.2521 12.8051 2.61149 13.1644 3.07162 13.2877C3.24117 13.3332 3.44783 13.3332 3.86115 13.3332H13.6389C14.0523 13.3332 14.2589 13.3332 14.4285 13.2877C14.8886 13.1644 15.248 12.8051 15.3713 12.3449C15.4167 12.1754 15.4167 11.9687 15.4167 11.5554C15.4167 11.3487 15.4167 11.2454 15.394 11.1606C15.3323 10.9306 15.1526 10.7509 14.9226 10.6892C14.8378 10.6665 14.7345 10.6665 14.5278 10.6665H14.0834" stroke="currentColor" stroke-linecap="round" stroke-linejoin="round"/>
</svg>
