<svg xmlns="http://www.w3.org/2000/svg" width="48" height="48" viewBox="0 0 48 48" fill="none">
  <g clip-path="url(#clip0_7154_5449)">
    <path d="M2.83195 21.888C3.79195 12.768 10.512 5.37599 19.248 3.40798L17.76 2.15998C17.28 1.72798 17.232 0.959985 17.664 0.479985C18.048 0.0479847 18.72 -0.0480152 19.248 0.287985L22.752 3.07199C22.992 3.26398 23.136 3.55199 23.184 3.88799C23.232 4.22399 23.136 4.55998 22.944 4.79998L20.16 8.30398C19.92 8.59198 19.584 8.78399 19.2 8.73599C18.528 8.73599 18 8.20798 18 7.53598C18 7.24798 18.096 6.95999 18.24 6.76798L18.912 5.95198C11.568 8.01599 6.09595 14.352 5.23195 22.128C5.18395 22.752 4.65595 23.184 4.03195 23.184H3.93595C3.26395 23.136 2.78395 22.56 2.83195 21.888ZM21.984 42.768C14.16 41.952 7.82395 36.384 5.80795 28.992L6.76795 29.76C7.29595 30.192 8.06395 30.096 8.44795 29.568C8.87995 29.04 8.78395 28.272 8.25595 27.888L4.75195 25.056C4.51195 24.864 4.17595 24.768 3.88795 24.816C3.55195 24.864 3.26395 25.008 3.07195 25.248L0.287954 28.752C0.0959539 28.944 0.0479539 29.232 0.0479539 29.52C-4.61228e-05 30.192 0.527954 30.72 1.19995 30.72C1.58395 30.72 1.91995 30.576 2.15995 30.288L3.31195 28.848C5.32795 37.584 12.672 44.208 21.792 45.168H21.888C22.56 45.216 23.136 44.688 23.136 44.016C23.184 43.392 22.656 42.816 21.984 42.768ZM43.968 24.96C43.296 24.912 42.72 25.392 42.624 26.016C41.808 33.792 36.288 40.128 28.944 42.192L29.76 41.184C30.192 40.656 30.096 39.888 29.568 39.504C29.04 39.072 28.272 39.168 27.888 39.696L25.248 43.008C24.912 43.248 24.72 43.632 24.768 44.016C24.768 44.496 25.104 44.88 25.488 45.072L28.752 47.712C28.944 47.856 29.232 47.952 29.52 47.952C29.904 47.952 30.24 47.808 30.432 47.52C30.864 46.992 30.768 46.224 30.24 45.84L28.848 44.736C37.488 42.672 44.064 35.328 45.024 26.304C45.12 25.584 44.64 25.008 43.968 24.96ZM47.568 18C47.04 17.568 46.272 17.664 45.888 18.192L44.688 19.68C42.768 10.8 35.376 3.98398 26.16 2.97598C25.488 2.87998 24.864 3.35998 24.816 4.03198C24.768 4.70398 25.248 5.27998 25.872 5.37598C33.792 6.23998 40.224 11.904 42.144 19.44L41.232 18.672C40.704 18.24 39.936 18.336 39.552 18.864C39.168 19.392 39.216 20.16 39.744 20.544L43.248 23.328C43.44 23.472 43.728 23.568 44.016 23.568C44.4 23.568 44.736 23.424 44.976 23.136L47.76 19.632C48.144 19.152 48.096 18.384 47.568 18ZM24 36.528C17.04 36.528 11.376 30.864 11.376 23.904C11.376 16.944 17.04 11.28 24 11.28C30.96 11.28 36.624 16.944 36.624 23.904C36.624 30.912 30.96 36.528 24 36.528ZM27.984 26.688C27.984 24.48 26.208 22.704 24 22.704C23.136 22.704 22.416 21.984 22.416 21.12C22.416 20.256 23.136 19.536 24 19.536C24.864 19.536 25.584 20.256 25.584 21.12C25.584 21.792 26.112 22.32 26.784 22.32C27.456 22.32 27.984 21.792 27.984 21.12C27.984 19.344 26.88 17.808 25.2 17.28V17.088C25.2 16.416 24.672 15.888 24 15.888C23.328 15.888 22.8 16.416 22.8 17.088V17.28C21.12 17.808 19.968 19.392 19.968 21.168C20.016 23.376 21.792 25.152 24 25.104C24.816 25.152 25.44 25.776 25.488 26.592C25.536 27.456 24.864 28.224 24 28.272C23.136 28.272 22.416 27.552 22.416 26.688C22.416 26.016 21.888 25.488 21.216 25.488C20.544 25.488 20.016 26.016 20.016 26.688C20.016 28.416 21.168 29.952 22.8 30.48V30.72C22.8 31.392 23.328 31.92 24 31.92C24.672 31.92 25.2 31.392 25.2 30.72V30.48C26.88 29.952 27.984 28.416 27.984 26.688Z" fill="url(#paint0_linear_7154_5449)"/>
    <rect x="17.0405" y="38.644" width="14.4" height="7.21805" fill="white"/>
    <path d="M29.6632 41.3403H29.6627C29.3438 41.3403 29.085 41.599 29.085 41.9195V43.2796C29.085 43.6005 29.3442 43.8588 29.6627 43.8588C29.9858 43.8588 30.2414 43.5964 30.2414 43.2791V41.9201C30.2415 41.5988 29.9818 41.3403 29.6632 41.3403Z" fill="url(#paint1_linear_7154_5449)"/>
    <path d="M31.2893 37.2002H17.1909C16.3037 37.2002 15.6001 37.922 15.6001 38.7949V46.4055C15.6001 47.2963 16.3216 48.0002 17.1909 48.0002H31.2893C32.1765 48.0002 32.8801 47.2784 32.8801 46.4055V38.7949C32.8801 37.9041 32.1586 37.2002 31.2893 37.2002ZM20.4084 44.231C20.4084 44.5113 20.1817 44.7385 19.9021 44.7385C19.6225 44.7385 19.3959 44.5113 19.3959 44.231V43.6513H18.2393V44.231C18.2393 44.5113 18.0127 44.7385 17.7331 44.7385C17.4535 44.7385 17.2268 44.5113 17.2268 44.231V41.9201C17.2268 41.0382 17.939 40.3259 18.817 40.3259C19.6947 40.3259 20.4083 41.0414 20.4083 41.9207L20.4084 44.231ZM24.2041 43.2797C24.2041 44.159 23.4905 44.8745 22.6133 44.8745C21.7332 44.8745 21.0226 44.1609 21.0226 43.2803V40.9694C21.0226 40.6891 21.2493 40.4618 21.5289 40.4618C21.8084 40.4618 22.0351 40.6891 22.0351 40.9694V43.2803C22.0351 43.6012 22.2944 43.8594 22.6128 43.8594C22.9322 43.8594 23.1916 43.5993 23.1916 43.2797V40.9694C23.1916 40.6891 23.4183 40.4618 23.6978 40.4618C23.9774 40.4618 24.2041 40.6891 24.2041 40.9694V43.2797H24.2041ZM27.2224 41.4769H26.6442V44.231C26.6442 44.5113 26.4175 44.7385 26.138 44.7385C25.8584 44.7385 25.6317 44.5113 25.6317 44.231V41.4769H25.0535C24.7739 41.4769 24.5472 41.2497 24.5472 40.9694C24.5472 40.6891 24.7739 40.4618 25.0535 40.4618H27.2225C27.5021 40.4618 27.7287 40.6891 27.7287 40.9694C27.7287 41.2497 27.502 41.4769 27.2224 41.4769ZM31.2533 43.2797C31.2533 44.1691 30.5334 44.8745 29.6626 44.8745C28.7824 44.8745 28.0718 44.1609 28.0718 43.2803V41.9201C28.0718 41.0382 28.784 40.3259 29.662 40.3259H29.6626C30.5461 40.3259 31.2533 41.0437 31.2533 41.9207V43.2797Z" fill="url(#paint2_linear_7154_5449)"/>
    <path d="M18.818 41.3403C18.4974 41.3403 18.2397 41.6 18.2397 41.9195V42.6356H19.3963V41.9201C19.3963 41.6004 19.1368 41.3403 18.818 41.3403Z" fill="url(#paint3_linear_7154_5449)"/>
  </g>
  <defs>
    <linearGradient id="paint0_linear_7154_5449" x1="0.0449219" y1="0.0859375" x2="48.0119" y2="0.0859375" gradientUnits="userSpaceOnUse">
      <stop stop-color="#155EEF"/>
      <stop offset="1" stop-color="#2970FF"/>
    </linearGradient>
    <linearGradient id="paint1_linear_7154_5449" x1="29.085" y1="41.3403" x2="30.2414" y2="41.3403" gradientUnits="userSpaceOnUse">
      <stop stop-color="#155EEF"/>
      <stop offset="1" stop-color="#2970FF"/>
    </linearGradient>
    <linearGradient id="paint2_linear_7154_5449" x1="15.6001" y1="37.2002" x2="32.8801" y2="37.2002" gradientUnits="userSpaceOnUse">
      <stop stop-color="#155EEF"/>
      <stop offset="1" stop-color="#2970FF"/>
    </linearGradient>
    <linearGradient id="paint3_linear_7154_5449" x1="18.2397" y1="41.3403" x2="19.3963" y2="41.3403" gradientUnits="userSpaceOnUse">
      <stop stop-color="#155EEF"/>
      <stop offset="1" stop-color="#2970FF"/>
    </linearGradient>
    <clipPath id="clip0_7154_5449">
      <rect width="48" height="48" fill="white"/>
    </clipPath>
  </defs>
</svg>