<svg xmlns="http://www.w3.org/2000/svg" width="16" height="17" viewBox="0 0 16 17" fill="none">
<path d="M2.66666 15.1667H13.3333C13.687 15.1667 14.0261 15.0262 14.2761 14.7762C14.5262 14.5261 14.6667 14.187 14.6667 13.8334V3.16671C14.6667 2.81309 14.5262 2.47395 14.2761 2.2239C14.0261 1.97385 13.687 1.83337 13.3333 1.83337H5.33333C4.97971 1.83337 4.64057 1.97385 4.39052 2.2239C4.14047 2.47395 3.99999 2.81309 3.99999 3.16671V13.8334C3.99999 14.187 3.85952 14.5261 3.60947 14.7762C3.35942 15.0262 3.02028 15.1667 2.66666 15.1667ZM2.66666 15.1667C2.31304 15.1667 1.9739 15.0262 1.72385 14.7762C1.4738 14.5261 1.33333 14.187 1.33333 13.8334V7.83337C1.33333 7.10004 1.93333 6.50004 2.66666 6.50004H3.99999M12 9.83337H6.66666M10 12.5H6.66666M6.66666 4.50004H12V7.16671H6.66666V4.50004Z" stroke="currentColor" stroke-width="1.5" stroke-linecap="round" stroke-linejoin="round"/>
</svg>