<svg xmlns="http://www.w3.org/2000/svg" width="40" height="40" viewBox="0 0 40 40" fill="none">
  <path d="M22.4999 15.4167H3.33325C2.64992 15.4167 2.08325 14.85 2.08325 14.1667C2.08325 13.4834 2.64992 12.9167 3.33325 12.9167H22.4999C23.1833 12.9167 23.7499 13.4834 23.7499 14.1667C23.7499 14.85 23.1833 15.4167 22.4999 15.4167ZM13.3333 28.75H9.99992C9.31659 28.75 8.74992 28.1834 8.74992 27.5C8.74992 26.8167 9.31659 26.25 9.99992 26.25H13.3333C14.0166 26.25 14.5833 26.8167 14.5833 27.5C14.5833 28.1834 14.0166 28.75 13.3333 28.75ZM24.1666 28.75H17.4999C16.8166 28.75 16.2499 28.1834 16.2499 27.5C16.2499 26.8167 16.8166 26.25 17.4999 26.25H24.1666C24.8499 26.25 25.4166 26.8167 25.4166 27.5C25.4166 28.1834 24.8499 28.75 24.1666 28.75Z" fill="currentColor"/>
  <path d="M29.2666 35.4166H10.7333C4.09992 35.4166 2.08325 33.4166 2.08325 26.85V13.15C2.08325 6.58331 4.09992 4.58331 10.7333 4.58331H22.4999C23.1833 4.58331 23.7499 5.14998 23.7499 5.83331C23.7499 6.51665 23.1833 7.08331 22.4999 7.08331H10.7333C5.49992 7.08331 4.58325 7.98331 4.58325 13.15V26.8333C4.58325 32 5.49992 32.9 10.7333 32.9H29.2499C34.4833 32.9 35.3999 32 35.3999 26.8333V20.0333C35.3999 19.35 35.9666 18.7833 36.6499 18.7833C37.3333 18.7833 37.8999 19.35 37.8999 20.0333V26.8333C37.9166 33.4166 35.8999 35.4166 29.2666 35.4166Z" fill="currentColor"/>
  <path d="M36.6667 11.6667H27.5C26.8167 11.6667 26.25 11.1 26.25 10.4167C26.25 9.73335 26.8167 9.16669 27.5 9.16669H36.6667C37.35 9.16669 37.9167 9.73335 37.9167 10.4167C37.9167 11.1 37.35 11.6667 36.6667 11.6667Z" fill="currentColor"/>
  <path d="M32.0833 16.25C31.3999 16.25 30.8333 15.6833 30.8333 15V5.83331C30.8333 5.14998 31.3999 4.58331 32.0833 4.58331C32.7666 4.58331 33.3333 5.14998 33.3333 5.83331V15C33.3333 15.6833 32.7666 16.25 32.0833 16.25Z" fill="currentColor"/>
</svg>