<svg xmlns="http://www.w3.org/2000/svg" viewBox="0 0 18 18" fill="none">
  <path d="M7.875 14.0625C7.72582 14.0625 7.58274 14.1218 7.47725 14.2273C7.37176 14.3327 7.3125 14.4758 7.3125 14.625C7.3125 14.7742 7.37176 14.9173 7.47725 15.0227C7.58274 15.1282 7.72582 15.1875 7.875 15.1875H10.125C10.2742 15.1875 10.4173 15.1282 10.5227 15.0227C10.6282 14.9173 10.6875 14.7742 10.6875 14.625C10.6875 14.4758 10.6282 14.3327 10.5227 14.2273C10.4173 14.1218 10.2742 14.0625 10.125 14.0625H7.875Z" fill="#667085"/>
  <path fill-rule="evenodd" clip-rule="evenodd" d="M6.46875 0.5625C5.79742 0.5625 5.15359 0.829185 4.67889 1.30389C4.20418 1.77859 3.9375 2.42242 3.9375 3.09375V14.9062C3.9375 15.5776 4.20418 16.2214 4.67889 16.6961C5.15359 17.1708 5.79742 17.4375 6.46875 17.4375H11.5312C12.2026 17.4375 12.8464 17.1708 13.3211 16.6961C13.7958 16.2214 14.0625 15.5776 14.0625 14.9062V3.09375C14.0625 2.42242 13.7958 1.77859 13.3211 1.30389C12.8464 0.829185 12.2026 0.5625 11.5312 0.5625H6.46875ZM5.625 3.09375C5.625 2.628 6.003 2.25 6.46875 2.25H7.3125V2.53125C7.3125 2.997 7.6905 3.375 8.15625 3.375H9.84375C10.3095 3.375 10.6875 2.997 10.6875 2.53125V2.25H11.5312C11.997 2.25 12.375 2.628 12.375 3.09375V14.9062C12.375 15.372 11.997 15.75 11.5312 15.75H6.46875C6.24497 15.75 6.03036 15.6611 5.87213 15.5029C5.71389 15.3446 5.625 15.13 5.625 14.9062V3.09375Z" fill="currentColor"/>
</svg>