<svg xmlns="http://www.w3.org/2000/svg" viewBox="0 0 16 16" fill="none">
  <path d="M13.3335 6.33268V4.79935C13.3335 4.05261 13.3335 3.67925 13.1882 3.39403C13.0603 3.14315 12.8564 2.93917 12.6055 2.81134C12.3203 2.66602 11.9469 2.66602 11.2002 2.66602H3.46683C2.72009 2.66602 2.34672 2.66602 2.06151 2.81134C1.81063 2.93917 1.60665 3.14315 1.47882 3.39403C1.3335 3.67924 1.3335 4.05261 1.3335 4.79935V11.1993C1.3335 11.9461 1.3335 12.3195 1.47882 12.6047C1.60665 12.8556 1.81063 13.0595 2.06151 13.1874C2.34672 13.3327 2.72009 13.3327 3.46683 13.3327L11.2002 13.3327C11.9469 13.3327 12.3203 13.3327 12.6055 13.1874C12.8564 13.0595 13.0603 12.8556 13.1882 12.6047C13.3335 12.3195 13.3335 11.9461 13.3335 11.1993V9.66602M10.0002 7.99935C10.0002 7.68958 10.0002 7.53469 10.0258 7.4059C10.131 6.87697 10.5445 6.46351 11.0734 6.3583C11.2022 6.33268 11.3571 6.33268 11.6668 6.33268H13.0002C13.3099 6.33268 13.4648 6.33268 13.5936 6.3583C14.1225 6.46351 14.536 6.87697 14.6412 7.4059C14.6668 7.53469 14.6668 7.68958 14.6668 7.99935C14.6668 8.30912 14.6668 8.464 14.6412 8.5928C14.536 9.12172 14.1225 9.53519 13.5936 9.6404C13.4648 9.66602 13.3099 9.66602 13.0002 9.66602H11.6668C11.3571 9.66602 11.2022 9.66601 11.0734 9.6404C10.5445 9.53519 10.131 9.12172 10.0258 8.5928C10.0002 8.464 10.0002 8.30912 10.0002 7.99935Z" stroke="currentColor" stroke-width="1.5" stroke-linecap="round" stroke-linejoin="round"/>
</svg>
