<svg viewBox="0 0 20 21" fill="none" xmlns="http://www.w3.org/2000/svg">
<g id="rocket 1">
<path id="Vector" d="M10.9416 18.9915L9.5833 15.7998C10.8916 15.3165 12.1166 14.6665 13.25 13.9082L10.9416 18.9915ZM4.69997 10.9165L1.5083 9.55817L6.59163 7.24984C5.8333 8.38317 5.1833 9.60817 4.69997 10.9165ZM16.0166 3.83317C16.25 3.83317 16.4583 3.83317 16.6333 3.87484C16.775 5.03317 16.6166 7.4165 13.8833 10.1498C12.4666 11.5748 10.775 12.6665 8.87497 13.3915L7.0833 11.6415C7.84997 9.7165 8.94163 8.02484 10.35 6.6165C12.65 4.3165 14.7 3.83317 16.0166 3.83317ZM16.0166 2.1665C14.3666 2.1665 11.8666 2.7415 9.16663 5.4415C7.34163 7.2665 6.24997 9.27484 5.54163 11.0332C5.3083 11.6582 5.46663 12.3415 5.92497 12.8082L7.69997 14.5748C8.01663 14.8915 8.44163 15.0832 8.8833 15.0832C9.07497 15.0832 9.27497 15.0332 9.46663 14.9582C11.25 14.2748 13.2333 13.1582 15.0583 11.3332C19.775 6.6165 18.0083 2.4915 18.0083 2.4915C18.0083 2.4915 17.25 2.1665 16.0166 2.1665ZM12.1166 8.38317C11.4666 7.73317 11.4666 6.67484 12.1166 6.02484C12.7666 5.37484 13.825 5.37484 14.475 6.02484C15.1166 6.67484 15.125 7.73317 14.475 8.38317C13.825 9.03317 12.7666 9.03317 12.1166 8.38317ZM5.19997 18.8332L8.2333 15.7998C7.94997 15.7248 7.67497 15.5998 7.42497 15.4248L4.02497 18.8332H5.19997ZM1.66663 18.8332H2.84163L6.81663 14.8665L5.6333 13.6915L1.66663 17.6582V18.8332ZM1.66663 16.4748L5.07497 13.0748C4.89997 12.8248 4.77497 12.5582 4.69997 12.2665L1.66663 15.2998V16.4748Z" fill="currentColor"/>
</g>
</svg>
