<svg viewBox="0 0 20 20" fill="none" xmlns="http://www.w3.org/2000/svg">
<path id="Icon" d="M7.50008 8.47884H7.50842M12.5001 13.4788H12.5084M13.3334 7.64551L6.66675 14.3122M14.9177 5.14426C15.0893 5.55928 15.4187 5.88917 15.8335 6.0614L17.2878 6.66382C17.7028 6.83574 18.0326 7.1655 18.2045 7.58056C18.3764 7.99561 18.3764 8.46196 18.2045 8.87701L17.6025 10.3303C17.4305 10.7456 17.4303 11.2124 17.6031 11.6274L18.204 13.0803C18.2892 13.2859 18.3331 13.5063 18.3331 13.7288C18.3332 13.9513 18.2893 14.1717 18.2042 14.3773C18.119 14.5829 17.9942 14.7697 17.8368 14.927C17.6794 15.0844 17.4926 15.2091 17.287 15.2942L15.8337 15.8962C15.4187 16.0678 15.0888 16.3972 14.9166 16.812L14.3142 18.2664C14.1423 18.6814 13.8125 19.0112 13.3975 19.1831C12.9825 19.355 12.5161 19.355 12.1011 19.1831L10.6478 18.5811C10.2328 18.4096 9.7666 18.41 9.35181 18.5821L7.89749 19.1836C7.48268 19.3552 7.01676 19.355 6.60206 19.1832C6.18735 19.0115 5.85779 18.6821 5.68576 18.2675L5.08318 16.8127C4.91158 16.3976 4.5822 16.0678 4.16745 15.8955L2.71313 15.2931C2.29828 15.1213 1.96863 14.7917 1.79665 14.3769C1.62467 13.9621 1.62444 13.4959 1.796 13.081L2.39797 11.6276C2.56946 11.2126 2.56911 10.7464 2.39699 10.3316L1.79589 8.87616C1.71067 8.67059 1.66678 8.45024 1.66675 8.2277C1.66671 8.00516 1.71053 7.7848 1.79568 7.5792C1.88084 7.3736 2.00568 7.1868 2.16305 7.02947C2.32043 6.87214 2.50727 6.74736 2.71289 6.66226L4.16616 6.06027C4.58081 5.88882 4.91049 5.55984 5.08283 5.14556L5.68523 3.69118C5.85715 3.27613 6.1869 2.94637 6.60193 2.77445C7.01697 2.60253 7.48331 2.60253 7.89834 2.77445L9.35162 3.37644C9.76667 3.54794 10.2328 3.54758 10.6476 3.37546L12.1026 2.77538C12.5175 2.60356 12.9838 2.60359 13.3987 2.77548C13.8137 2.94737 14.1434 3.27703 14.3153 3.69198L14.9179 5.14678L14.9177 5.14426ZM7.91675 8.47884C7.91675 8.70896 7.7302 8.89551 7.50008 8.89551C7.26996 8.89551 7.08342 8.70896 7.08342 8.47884C7.08342 8.24872 7.26996 8.06217 7.50008 8.06217C7.7302 8.06217 7.91675 8.24872 7.91675 8.47884ZM12.9167 13.4788C12.9167 13.709 12.7302 13.8955 12.5001 13.8955C12.27 13.8955 12.0834 13.709 12.0834 13.4788C12.0834 13.2487 12.27 13.0622 12.5001 13.0622C12.7302 13.0622 12.9167 13.2487 12.9167 13.4788Z" stroke="currentColor" stroke-width="1.66667" stroke-linecap="round" stroke-linejoin="round"/>

</svg>
