<svg viewBox="0 0 16 16" fill="none" xmlns="http://www.w3.org/2000/svg">
<g clip-path="url(#clip0_1165_4305)">
<path d="M8.21558 9.47021C9.25111 9.47021 10.0906 8.63075 10.0906 7.59521C10.0906 6.55968 9.25111 5.72021 8.21558 5.72021C7.18004 5.72021 6.34058 6.55968 6.34058 7.59521C6.34058 8.63075 7.18004 9.47021 8.21558 9.47021Z" stroke="currentColor" stroke-width="1.2" stroke-linecap="round" stroke-linejoin="round"/>
<path d="M12.8406 9.47021C12.7574 9.65872 12.7326 9.86784 12.7693 10.0706C12.8061 10.2733 12.9027 10.4604 13.0468 10.6077L13.0843 10.6452C13.2005 10.7613 13.2927 10.8992 13.3557 11.0509C13.4186 11.2027 13.4509 11.3653 13.4509 11.5296C13.4509 11.6939 13.4186 11.8565 13.3557 12.0083C13.2927 12.16 13.2005 12.2979 13.0843 12.414C12.9682 12.5302 12.8304 12.6224 12.6786 12.6853C12.5269 12.7482 12.3642 12.7806 12.2 12.7806C12.0357 12.7806 11.873 12.7482 11.7213 12.6853C11.5695 12.6224 11.4317 12.5302 11.3156 12.414L11.2781 12.3765C11.1308 12.2324 10.9437 12.1357 10.7409 12.099C10.5382 12.0622 10.3291 12.087 10.1406 12.1702C9.95572 12.2494 9.79807 12.381 9.68702 12.5487C9.57597 12.7164 9.51638 12.9128 9.51558 13.114V13.2202C9.51558 13.5517 9.38388 13.8697 9.14946 14.1041C8.91504 14.3385 8.5971 14.4702 8.26558 14.4702C7.93406 14.4702 7.61611 14.3385 7.38169 14.1041C7.14727 13.8697 7.01558 13.5517 7.01558 13.2202V13.164C7.01074 12.9571 6.94378 12.7565 6.8234 12.5882C6.70302 12.4198 6.53479 12.2916 6.34058 12.2202C6.15207 12.137 5.94296 12.1122 5.74021 12.149C5.53746 12.1857 5.35038 12.2824 5.20308 12.4265L5.16558 12.464C5.04948 12.5802 4.91162 12.6724 4.75988 12.7353C4.60813 12.7982 4.44547 12.8306 4.2812 12.8306C4.11693 12.8306 3.95427 12.7982 3.80253 12.7353C3.65078 12.6724 3.51292 12.5802 3.39683 12.464C3.28061 12.3479 3.18841 12.21 3.1255 12.0583C3.0626 11.9065 3.03022 11.7439 3.03022 11.5796C3.03022 11.4153 3.0626 11.2527 3.1255 11.1009C3.18841 10.9492 3.28061 10.8113 3.39683 10.6952L3.43433 10.6577C3.57841 10.5104 3.67507 10.3233 3.71183 10.1206C3.74859 9.91784 3.72377 9.70872 3.64058 9.52021C3.56135 9.33536 3.4298 9.1777 3.26212 9.06666C3.09444 8.95561 2.89794 8.89602 2.69683 8.89521H2.59058C2.25906 8.89521 1.94111 8.76352 1.70669 8.5291C1.47227 8.29468 1.34058 7.97674 1.34058 7.64521C1.34058 7.31369 1.47227 6.99575 1.70669 6.76133C1.94111 6.52691 2.25906 6.39521 2.59058 6.39521H2.64683C2.8537 6.39038 3.05433 6.32341 3.22264 6.20303C3.39095 6.08265 3.51915 5.91442 3.59058 5.72021C3.67377 5.5317 3.69859 5.32259 3.66183 5.11985C3.62507 4.9171 3.52841 4.73001 3.38433 4.58271L3.34683 4.54521C3.23061 4.42912 3.13841 4.29126 3.0755 4.13952C3.0126 3.98777 2.98022 3.82511 2.98022 3.66084C2.98022 3.49657 3.0126 3.33391 3.0755 3.18216C3.13841 3.03042 3.23061 2.89256 3.34683 2.77646C3.46292 2.66024 3.60078 2.56805 3.75253 2.50514C3.90427 2.44223 4.06693 2.40986 4.2312 2.40986C4.39547 2.40986 4.55813 2.44223 4.70988 2.50514C4.86162 2.56805 4.99948 2.66024 5.11558 2.77646L5.15308 2.81396C5.30038 2.95805 5.48746 3.05471 5.69021 3.09147C5.89296 3.12823 6.10207 3.10341 6.29058 3.02021H6.34058C6.52543 2.94099 6.68309 2.80944 6.79413 2.64176C6.90518 2.47407 6.96477 2.27758 6.96558 2.07646V1.97021C6.96558 1.63869 7.09727 1.32075 7.33169 1.08633C7.56611 0.851911 7.88406 0.720215 8.21558 0.720215C8.5471 0.720215 8.86504 0.851911 9.09946 1.08633C9.33388 1.32075 9.46558 1.63869 9.46558 1.97021V2.02646C9.46638 2.22758 9.52597 2.42407 9.63702 2.59176C9.74807 2.75944 9.90572 2.89099 10.0906 2.97021C10.2791 3.05341 10.4882 3.07823 10.6909 3.04147C10.8937 3.00471 11.0808 2.90805 11.2281 2.76396L11.2656 2.72646C11.3817 2.61024 11.5195 2.51805 11.6713 2.45514C11.823 2.39223 11.9857 2.35986 12.15 2.35986C12.3142 2.35986 12.4769 2.39223 12.6286 2.45514C12.7804 2.51805 12.9182 2.61024 13.0343 2.72646C13.1505 2.84256 13.2427 2.98042 13.3057 3.13216C13.3686 3.28391 13.4009 3.44657 13.4009 3.61084C13.4009 3.77511 13.3686 3.93777 13.3057 4.08952C13.2427 4.24126 13.1505 4.37912 13.0343 4.49521L12.9968 4.53271C12.8527 4.68001 12.7561 4.8671 12.7193 5.06985C12.6826 5.27259 12.7074 5.4817 12.7906 5.67021V5.72021C12.8698 5.90507 13.0014 6.06273 13.169 6.17377C13.3367 6.28482 13.5332 6.34441 13.7343 6.34521H13.8406C14.1721 6.34521 14.49 6.47691 14.7245 6.71133C14.9589 6.94575 15.0906 7.26369 15.0906 7.59521C15.0906 7.92674 14.9589 8.24468 14.7245 8.4791C14.49 8.71352 14.1721 8.84521 13.8406 8.84521H13.7843C13.5832 8.84602 13.3867 8.90561 13.219 9.01666C13.0514 9.1277 12.9198 9.28536 12.8406 9.47021Z" stroke="currentColor" stroke-width="1.2" stroke-linecap="round" stroke-linejoin="round"/>
</g>
<defs>
<clipPath id="clip0_1165_4305">
<rect width="15" height="15" fill="white" transform="translate(0.715576 0.0952148)"/>
</clipPath>
</defs>
</svg>
