<svg xmlns="http://www.w3.org/2000/svg" width="16" height="17" viewBox="0 0 16 17" fill="none">
  <path d="M10.6667 5.83333C10.6667 6.54058 10.3858 7.21885 9.88567 7.71895C9.38557 8.21905 8.7073 8.5 8.00005 8.5C7.29281 8.5 6.61453 8.21905 6.11443 7.71895C5.61434 7.21885 5.33338 6.54058 5.33338 5.83333M2.4222 5.43426L1.95553 11.0343C1.85528 12.2373 1.80515 12.8388 2.00851 13.3028C2.18717 13.7105 2.49674 14.0469 2.88818 14.2588C3.3337 14.5 3.93729 14.5 5.14448 14.5H10.8556C12.0628 14.5 12.6664 14.5 13.1119 14.2588C13.5034 14.0469 13.8129 13.7105 13.9916 13.3028C14.1949 12.8388 14.1448 12.2373 14.0446 11.0343L13.5779 5.43426C13.4916 4.39917 13.4485 3.88162 13.2193 3.4899C13.0175 3.14496 12.7169 2.8684 12.3564 2.6959C11.947 2.5 11.4276 2.5 10.389 2.5L5.61114 2.5C4.57247 2.5 4.05313 2.5 3.64373 2.6959C3.28321 2.8684 2.98265 3.14496 2.7808 3.4899C2.55158 3.88162 2.50845 4.39917 2.4222 5.43426Z" stroke="currentColor" stroke-width="1.5" stroke-linecap="round" stroke-linejoin="round"/>
</svg>