<svg viewBox="0 0 16 17" fill="none" xmlns="http://www.w3.org/2000/svg">
<path id="Icon" d="M4.26572 11.7813H11.3724C11.9958 11.7813 12.3075 11.7813 12.5615 11.6686C12.7855 11.5693 12.9772 11.4093 13.115 11.2067C13.2712 10.9769 13.327 10.6703 13.4385 10.0569L14.325 5.18142C14.3636 4.96883 14.3829 4.86254 14.3531 4.77955C14.3269 4.70673 14.2758 4.64552 14.2089 4.60672C14.1325 4.5625 14.0245 4.5625 13.8084 4.5625H3.28134M1.3125 1.9375H2.17639C2.33566 1.9375 2.41529 1.9375 2.47969 1.96659C2.53645 1.99223 2.58475 2.0335 2.61893 2.08557C2.65771 2.14465 2.67013 2.2233 2.69497 2.38062L4.52378 13.9631C4.54862 14.1204 4.56104 14.1991 4.59982 14.2582C4.634 14.3103 4.6823 14.3515 4.73906 14.3772C4.80346 14.4063 4.88309 14.4063 5.04236 14.4063H12.4688" stroke="currentColor" stroke-width="1.5" stroke-linecap="round" stroke-linejoin="round"/>

</svg>
