<svg  viewBox="0 0 12 12" fill="none" xmlns="http://www.w3.org/2000/svg">
<g id="star">
<path id="Icon" d="M6.04822 2.13967C6.15234 1.92873 6.2044 1.82326 6.27507 1.78957C6.33656 1.76025 6.408 1.76025 6.46949 1.78957C6.54017 1.82326 6.59223 1.92873 6.69635 2.13967L7.68416 4.14087C7.7149 4.20314 7.73027 4.23428 7.75273 4.25845C7.77262 4.27986 7.79647 4.2972 7.82296 4.30952C7.85288 4.32343 7.88724 4.32846 7.95596 4.3385L10.1655 4.66146C10.3982 4.69547 10.5146 4.71248 10.5684 4.76931C10.6152 4.81875 10.6373 4.8867 10.6284 4.95422C10.6181 5.03183 10.5339 5.11387 10.3654 5.27794L8.76716 6.83466C8.71734 6.88319 8.69242 6.90745 8.67635 6.93632C8.66212 6.96189 8.65299 6.98997 8.64947 7.01901C8.64549 7.05182 8.65137 7.08609 8.66312 7.15464L9.04024 9.35344C9.08002 9.58535 9.09991 9.7013 9.06253 9.77012C9.03001 9.82998 8.97221 9.87198 8.90522 9.88439C8.82822 9.89867 8.72409 9.84391 8.51584 9.73439L6.54049 8.69557C6.47895 8.66321 6.44817 8.64702 6.41575 8.64066C6.38705 8.63503 6.35752 8.63503 6.32881 8.64066C6.29639 8.64702 6.26562 8.66321 6.20407 8.69557L4.22873 9.73439C4.02047 9.84391 3.91634 9.89867 3.83935 9.88439C3.77236 9.87198 3.71455 9.82998 3.68204 9.77012C3.64466 9.7013 3.66455 9.58535 3.70432 9.35344L4.08144 7.15464C4.0932 7.08609 4.09908 7.05182 4.0951 7.01901C4.09158 6.98997 4.08245 6.96189 4.06821 6.93632C4.05214 6.90745 4.02723 6.88319 3.97741 6.83466L2.37913 5.27794C2.21068 5.11387 2.12645 5.03183 2.1162 4.95422C2.10729 4.8867 2.12932 4.81875 2.17616 4.76931C2.23 4.71248 2.34634 4.69547 2.57902 4.66146L4.78861 4.3385C4.85733 4.32846 4.89168 4.32343 4.9216 4.30952C4.9481 4.2972 4.97195 4.27986 4.99184 4.25845C5.0143 4.23428 5.02967 4.20314 5.06041 4.14087L6.04822 2.13967Z" fill="currentColor"/>
</g>
</svg>
