<svg viewBox="0 0 16 16" fill="none" xmlns="http://www.w3.org/2000/svg">
<g id="sticker-square">
<path id="Icon" d="M8.53113 2.92188V4.69375C8.53113 5.79635 8.53113 6.34766 8.74571 6.76879C8.93446 7.13924 9.23564 7.44042 9.60608 7.62917C10.0272 7.84375 10.5785 7.84375 11.6811 7.84375H13.453M13.7811 9.14852V11.2563C13.7811 12.3589 13.7811 12.9102 13.5665 13.3313C13.3778 13.7017 13.0766 14.0029 12.7062 14.1917C12.285 14.4063 11.7337 14.4063 10.6311 14.4063H5.11863C4.01602 14.4063 3.46472 14.4063 3.04358 14.1917C2.67314 14.0029 2.37196 13.7017 2.18321 13.3313C1.96863 12.9102 1.96863 12.3589 1.96863 11.2563V5.74375C1.96863 4.64115 1.96863 4.08985 2.18321 3.66871C2.37196 3.29826 2.67314 2.99708 3.04358 2.80833C3.46472 2.59375 4.01602 2.59375 5.11863 2.59375H7.22636C7.70789 2.59375 7.94866 2.59375 8.17524 2.64815C8.37612 2.69637 8.56817 2.77592 8.74431 2.88386C8.94299 3.00562 9.11324 3.17587 9.45374 3.51636L12.8585 6.92114C13.199 7.26164 13.3693 7.43188 13.491 7.63056C13.599 7.80671 13.6785 7.99875 13.7267 8.19964C13.7811 8.42622 13.7811 8.66699 13.7811 9.14852Z" stroke="currentColor" stroke-width="1.5" stroke-linecap="round" stroke-linejoin="round"/>
</g>
</svg>
