<svg xmlns="http://www.w3.org/2000/svg" width="24" height="24" viewBox="0 0 24 24" fill="none">
  <g clip-path="url(#clip0_7090_48884)">
    <path d="M1.48699 17.3874H15.9485C16.345 17.3874 16.6664 17.066 16.6664 16.6695V5.70703H0.769043V16.6695C0.769043 17.066 1.09048 17.3874 1.48699 17.3874Z" fill="white"/>
    <path d="M3.33315 5.70703H0.769043V16.6695C0.769043 17.066 1.09048 17.3874 1.48699 17.3874H15.9485C16.345 17.3874 16.6664 17.066 16.6664 16.6695V14.8233L12.486 14.475C7.7475 14.0801 3.93115 10.4242 3.33315 5.70703Z" fill="#E6E7E8"/>
    <path d="M0.769043 2.73455V5.70727H16.6664V2.73455C16.6664 2.33804 16.345 2.0166 15.9485 2.0166H1.48699C1.09048 2.0166 0.769043 2.33804 0.769043 2.73455Z" fill="white"/>
    <path d="M15.9487 1.24744H13.5897V0H12.0512V1.24744H5.38462V0H3.84615V1.24744H1.48718C0.667128 1.24744 0 1.91462 0 2.73462V16.6698C0 17.4898 0.667128 18.157 1.48718 18.157H10.5908V16.6185H1.53846V6.47656H15.8974V9.42287H17.4358V2.73462C17.4358 1.91462 16.7687 1.24744 15.9487 1.24744ZM1.53846 4.9381V2.7859H3.84615V3.87944H5.38462V2.7859H12.0513V3.87944H13.5897V2.7859H15.8974V4.9381H1.53846Z" fill="#3E4D6C"/>
    <path d="M3.6167 7.73633H5.58993V9.27479H3.6167V7.73633Z" fill="#3E4D6C"/>
    <path d="M7.71924 7.73633H9.69247V9.27479H7.71924V7.73633Z" fill="#3E4D6C"/>
    <path d="M11.8218 7.73633H13.795V9.27479H11.8218V7.73633Z" fill="#0795FE"/>
    <path d="M3.6167 10.8135H5.58993V12.3519H3.6167V10.8135Z" fill="#3E4D6C"/>
    <path d="M7.71924 10.8135H9.69247V12.3519H7.71924V10.8135Z" fill="#0795FE"/>
    <path d="M11.8218 10.8135H13.795V12.3519H11.8218V10.8135Z" fill="#3E4D6C"/>
    <path d="M3.6167 13.8901H5.58993V15.4286H3.6167V13.8901Z" fill="#3E4D6C"/>
    <path d="M7.71924 13.8901H9.69247V15.4286H7.71924V13.8901Z" fill="#0795FE"/>
    <path d="M21.8674 17.436C21.8674 17.1971 21.8476 16.9628 21.8101 16.7343L23.2303 15.729L21.8342 13.348L20.2395 14.0567C19.8726 13.7611 19.4566 13.5225 19.0055 13.3542L18.8316 11.6411H16.0394L15.8654 13.3542C15.4143 13.5225 14.9984 13.7612 14.6314 14.0567L13.0367 13.348L11.6406 15.729L13.0609 16.7343C13.0234 16.9628 13.0035 17.1971 13.0035 17.436C13.0035 17.6749 13.0233 17.9092 13.0609 18.1377L11.6406 19.143L13.0367 21.5239L14.6314 20.8153C14.9984 21.1109 15.4143 21.3494 15.8654 21.5177L16.0394 23.2309H18.8316L19.0056 21.5177C19.4567 21.3494 19.8726 21.1108 20.2395 20.8153L21.8343 21.5239L23.2304 19.143L21.8101 18.1377C21.8476 17.9092 21.8674 17.6749 21.8674 17.436Z" fill="white"/>
    <path d="M18.8318 24.0002H16.0396C15.6449 24.0002 15.3143 23.7015 15.2744 23.3087L15.1461 22.046C14.9357 21.9441 14.7326 21.8282 14.5377 21.6989L13.3494 22.227C12.9915 22.3859 12.5715 22.2509 12.3734 21.9131L10.9773 19.5321C10.7753 19.1877 10.8705 18.7459 11.1965 18.5152L12.2457 17.7725C12.2309 17.5486 12.2309 17.3237 12.2457 17.0998L11.1965 16.3571C10.8705 16.1264 10.7753 15.6846 10.9773 15.3402L12.3734 12.9591C12.5714 12.6214 12.9915 12.4864 13.3494 12.6452L14.5377 13.1734C14.7325 13.0441 14.9357 12.9283 15.1461 12.8263L15.2744 11.5636C15.3143 11.1708 15.6449 10.8721 16.0396 10.8721H18.8318C19.2266 10.8721 19.5572 11.1708 19.5971 11.5636L19.7253 12.8263C19.9357 12.9282 20.1389 13.0441 20.3337 13.1734L21.5221 12.6452C21.8799 12.4863 22.3 12.6213 22.498 12.9591L23.8941 15.3402C24.0961 15.6846 24.001 16.1264 23.675 16.3571L22.6257 17.0998C22.6406 17.3237 22.6406 17.5486 22.6257 17.7725L23.675 18.5152C24.001 18.7459 24.0961 19.1877 23.8941 19.5321L22.498 21.9131C22.3 22.2509 21.8799 22.3859 21.5221 22.227L20.3337 21.6989C20.139 21.8282 19.9358 21.944 19.7253 22.046L19.5971 23.3087C19.5573 23.7015 19.2266 24.0002 18.8318 24.0002ZM16.7347 22.4618H18.1368L18.2406 21.4401C18.2701 21.1488 18.4626 20.8995 18.737 20.7971C19.1069 20.6591 19.4502 20.4637 19.7573 20.2164C19.9818 20.0355 20.2886 19.9955 20.5521 20.1125L21.5187 20.542L22.2099 19.363L21.366 18.7657C21.1258 18.5958 21.0037 18.3036 21.0513 18.0132C21.1139 17.6318 21.1139 17.2405 21.0513 16.8591C21.0036 16.5687 21.1258 16.2766 21.366 16.1066L22.2099 15.5093L21.5187 14.3304L20.5521 14.7599C20.2887 14.8769 19.9818 14.8369 19.7573 14.656C19.4501 14.4086 19.1069 14.2132 18.737 14.0752C18.4626 13.9728 18.2701 13.7236 18.2406 13.4322L18.1368 12.4105H16.7347L16.6309 13.4321C16.6013 13.7235 16.4089 13.9727 16.1345 14.0751C15.7646 14.2131 15.4213 14.4085 15.1142 14.6559C14.8897 14.8367 14.5828 14.8768 14.3193 14.7598L13.3528 14.3303L12.6615 15.5092L13.5055 16.1065C13.7457 16.2765 13.8678 16.5686 13.8201 16.859C13.7575 17.2404 13.7575 17.6317 13.8201 18.0131C13.8678 18.3035 13.7457 18.5956 13.5055 18.7656L12.6615 19.3629L13.3528 20.5419L14.3193 20.1124C14.5829 19.9954 14.8897 20.0354 15.1142 20.2163C15.4213 20.4636 15.7646 20.659 16.1345 20.797C16.4089 20.8994 16.6013 21.1487 16.6309 21.44L16.7347 22.4618Z" fill="#3E4D6C"/>
    <path d="M20.3281 17.1103H18.324C18.2675 17.0398 18.2034 16.9756 18.1328 16.9191V14.9111H16.5944V16.9191C16.3131 17.1446 16.1328 17.4909 16.1328 17.8795C16.1328 18.5593 16.6838 19.1103 17.3636 19.1103C17.7521 19.1103 18.0985 18.9301 18.324 18.6488H20.3281V17.1103Z" fill="#0795FE"/>
  </g>
  <defs>
    <clipPath id="clip0_7090_48884">
      <rect width="24" height="24" fill="white"/>
    </clipPath>
  </defs>
</svg>