<svg viewBox="0 0 16 17" fill="none" xmlns="http://www.w3.org/2000/svg">
<path d="M5.25 4.875H5.25656M1.3125 3.0375L1.3125 5.9739C1.3125 6.29493 1.3125 6.45544 1.34876 6.60649C1.38092 6.74041 1.43395 6.86844 1.50591 6.98587C1.58708 7.11833 1.70058 7.23183 1.92758 7.45882L6.96011 12.4914C7.73977 13.271 8.1296 13.6608 8.57912 13.8069C8.97453 13.9354 9.40047 13.9354 9.79588 13.8069C10.2454 13.6608 10.6352 13.271 11.4149 12.4914L12.8664 11.0399C13.646 10.2602 14.0358 9.8704 14.1819 9.42088C14.3104 9.02547 14.3104 8.59953 14.1819 8.20412C14.0358 7.7546 13.646 7.36477 12.8664 6.58511L7.83382 1.55258C7.60683 1.32558 7.49333 1.21208 7.36087 1.13091C7.24344 1.05895 7.11541 1.00592 6.98149 0.973764C6.83044 0.9375 6.66993 0.9375 6.3489 0.9375L3.4125 0.9375C2.67743 0.9375 2.3099 0.9375 2.02914 1.08055C1.78218 1.20639 1.58139 1.40717 1.45555 1.65414C1.3125 1.9349 1.3125 2.30243 1.3125 3.0375ZM5.57813 4.875C5.57813 5.05622 5.43122 5.20313 5.25 5.20313C5.06878 5.20313 4.92188 5.05622 4.92188 4.875C4.92188 4.69378 5.06878 4.54688 5.25 4.54688C5.43122 4.54688 5.57813 4.69378 5.57813 4.875Z" stroke="#344054" stroke-width="1.5" stroke-linecap="round" stroke-linejoin="round"/>
</svg>
