<svg xmlns="http://www.w3.org/2000/svg" viewBox="0 0 18 18" fill="none">
  <path d="M11.9999 4.5V3.9C11.9999 3.05992 11.9999 2.63988 11.8364 2.31901C11.6926 2.03677 11.4631 1.8073 11.1809 1.66349C10.86 1.5 10.44 1.5 9.59988 1.5H8.39988C7.5598 1.5 7.13976 1.5 6.81889 1.66349C6.53665 1.8073 6.30718 2.03677 6.16337 2.31901C5.99988 2.63988 5.99988 3.05992 5.99988 3.9V4.5M7.49988 8.625V12.375M10.4999 8.625V12.375M2.24988 4.5H15.7499M14.2499 4.5V12.9C14.2499 14.1601 14.2499 14.7902 14.0046 15.2715C13.7889 15.6948 13.4447 16.039 13.0214 16.2548C12.5401 16.5 11.91 16.5 10.6499 16.5H7.34988C6.08976 16.5 5.4597 16.5 4.9784 16.2548C4.55503 16.039 4.21083 15.6948 3.99511 15.2715C3.74988 14.7902 3.74988 14.1601 3.74988 12.9V4.5" stroke="currentColor" stroke-width="1.5" stroke-linecap="round" stroke-linejoin="round"/>
</svg>