<svg xmlns="http://www.w3.org/2000/svg" width="20" height="20" viewBox="0 0 20 20" fill="none">
  <path d="M18.125 10.8332C18.1232 12.7345 17.4553 14.575 16.2374 16.035C15.0195 17.495 13.3285 18.4821 11.4583 18.8248C10.4942 19.0026 9.50576 19.0026 8.54167 18.8248C6.67151 18.4821 4.98054 17.495 3.76261 16.035C2.54468 14.575 1.87679 12.7345 1.875 10.8332C1.91279 9.22598 2.33574 7.65133 3.10833 6.2415C3.16475 6.13309 3.25187 6.04371 3.3588 5.98453C3.46573 5.92536 3.58774 5.89901 3.70956 5.90879C3.83138 5.91858 3.94762 5.96405 4.04374 6.03953C4.13986 6.11501 4.21161 6.21714 4.25 6.33317C4.7 7.67484 5.65 8.5415 6.66667 8.5415C8.15833 8.5415 9.375 6.7665 9.375 4.58317C9.38655 3.69712 9.16529 2.82356 8.73333 2.04984C8.68421 1.9612 8.65638 1.86236 8.65204 1.76112C8.64771 1.65988 8.66698 1.55901 8.70833 1.4665C8.7506 1.37536 8.81441 1.29586 8.89426 1.23489C8.97411 1.17391 9.06761 1.13328 9.16667 1.1165C9.4419 1.06857 9.72063 1.04348 10 1.0415C14.3 1.0415 18.125 6.5165 18.125 10.8332Z" fill="white"/>
  <path d="M13.3334 15.8333C13.3338 16.4579 13.1582 17.0699 12.8265 17.5991C12.4948 18.1283 12.0206 18.5532 11.4584 18.825C10.4943 19.0028 9.50578 19.0028 8.54169 18.825C7.97941 18.5532 7.5052 18.1283 7.17354 17.5991C6.84187 17.0699 6.66619 16.4579 6.66669 15.8333C6.66669 13.9917 10 10 10 10C10 10 13.3334 13.9917 13.3334 15.8333Z" fill="#FD3C3C"/>
</svg>