<svg xmlns="http://www.w3.org/2000/svg" width="16" height="17" viewBox="0 0 16 17" fill="none">
  <path d="M14.6663 14.5V13.1667C14.6663 11.9241 13.8165 10.88 12.6663 10.584M10.333 2.69384C11.3103 3.08943 11.9997 4.04754 11.9997 5.16667C11.9997 6.28579 11.3103 7.2439 10.333 7.63949M11.333 14.5C11.333 13.2575 11.333 12.6362 11.13 12.1462C10.8594 11.4928 10.3402 10.9736 9.68683 10.703C9.19677 10.5 8.57552 10.5 7.33301 10.5H5.33301C4.0905 10.5 3.46924 10.5 2.97919 10.703C2.32578 10.9736 1.80665 11.4928 1.536 12.1462C1.33301 12.6362 1.33301 13.2575 1.33301 14.5M8.99967 5.16667C8.99967 6.63943 7.80577 7.83333 6.33301 7.83333C4.86025 7.83333 3.66634 6.63943 3.66634 5.16667C3.66634 3.69391 4.86025 2.5 6.33301 2.5C7.80577 2.5 8.99967 3.69391 8.99967 5.16667Z" stroke="currentColor" stroke-width="1.5" stroke-linecap="round" stroke-linejoin="round"/>
</svg>