<svg width="20" height="20" viewBox="0 0 20 20" fill="none" xmlns="http://www.w3.org/2000/svg">
<path fill-rule="evenodd" clip-rule="evenodd" d="M10 19.375C14.8325 19.375 18.75 15.4575 18.75 10.625C18.75 5.79251 14.8325 1.875 10 1.875C5.16751 1.875 1.25 5.79251 1.25 10.625C1.25 12.1943 1.66312 13.6671 2.38655 14.9406L1.25 19.375L5.82179 18.3149C7.06336 18.9909 8.48682 19.375 10 19.375ZM10 18.0288C14.089 18.0288 17.4038 14.714 17.4038 10.625C17.4038 6.53597 14.089 3.22115 10 3.22115C5.91097 3.22115 2.59615 6.53597 2.59615 10.625C2.59615 12.2038 3.09031 13.6672 3.9324 14.8689L3.26923 17.3558L5.79996 16.7231C6.99335 17.5466 8.44036 18.0288 10 18.0288Z" fill="#BFC8D0"/>
<path d="M17.5 10C17.5 14.1421 14.1421 17.5 10 17.5C8.4201 17.5 6.9543 17.0115 5.74541 16.1773L3.18182 16.8182L3.8536 14.299C3.00058 13.0817 2.5 11.5993 2.5 10C2.5 5.85786 5.85786 2.5 10 2.5C14.1421 2.5 17.5 5.85786 17.5 10Z" fill="url(#paint0_linear_2554_42997)"/>
<path fill-rule="evenodd" clip-rule="evenodd" d="M10 18.75C14.8325 18.75 18.75 14.8325 18.75 10C18.75 5.16751 14.8325 1.25 10 1.25C5.16751 1.25 1.25 5.16751 1.25 10C1.25 11.5693 1.66312 13.0421 2.38655 14.3156L1.25 18.75L5.82179 17.6899C7.06336 18.3659 8.48682 18.75 10 18.75ZM10 17.4038C14.089 17.4038 17.4038 14.089 17.4038 10C17.4038 5.91097 14.089 2.59615 10 2.59615C5.91097 2.59615 2.59615 5.91097 2.59615 10C2.59615 11.5788 3.09031 13.0422 3.9324 14.2439L3.26923 16.7308L5.79996 16.0981C6.99335 16.9216 8.44036 17.4038 10 17.4038Z" fill="white"/>
<path d="M7.81251 5.93834C7.60447 5.52048 7.28533 5.55748 6.96292 5.55748C6.38673 5.55748 5.48828 6.24765 5.48828 7.53214C5.48828 8.58484 5.95216 9.73718 7.51526 11.461C9.02378 13.1246 11.0059 13.9852 12.6514 13.9559C14.2969 13.9266 14.6354 12.5106 14.6354 12.0324C14.6354 11.8204 14.5039 11.7147 14.4133 11.6859C13.8525 11.4168 12.8183 10.9154 12.583 10.8212C12.3477 10.727 12.2248 10.8544 12.1484 10.9237C11.935 11.1271 11.512 11.7264 11.3672 11.8612C11.2224 11.996 11.0064 11.9278 10.9166 11.8768C10.5859 11.7441 9.68933 11.3453 8.97467 10.6526C8.09083 9.79578 8.03896 9.501 7.87244 9.23861C7.73922 9.02869 7.83698 8.8999 7.88576 8.84362C8.07619 8.62389 8.33913 8.28466 8.45705 8.11608C8.57496 7.9475 8.48135 7.69155 8.42518 7.53214C8.18361 6.84655 7.97895 6.27263 7.81251 5.93834Z" fill="white"/>
<defs>
<linearGradient id="paint0_linear_2554_42997" x1="16.5625" y1="4.375" x2="2.5" y2="17.5" gradientUnits="userSpaceOnUse">
<stop stop-color="#5BD066"/>
<stop offset="1" stop-color="#27B43E"/>
</linearGradient>
</defs>
</svg>
